<svg xmlns="http://www.w3.org/2000/svg" xmlns:xlink="http://www.w3.org/1999/xlink" width="500" zoomAndPan="magnify" viewBox="0 0 375 374.999991" height="500" preserveAspectRatio="xMidYMid meet" version="1.0"><defs><g/><clipPath id="5658d41bac"><path d="M 344 12 L 355.558594 12 L 355.558594 25 L 344 25 Z M 344 12 " clip-rule="nonzero"/></clipPath><clipPath id="83673f8e93"><rect x="0" width="356" y="0" height="57"/></clipPath></defs><rect x="-37.5" width="450" fill="#ffffff" y="-37.499999" height="449.999989" fill-opacity="1"/><rect x="-37.5" width="450" fill="#ffffff" y="-37.499999" height="449.999989" fill-opacity="1"/><g transform="matrix(1, 0, 0, 1, 9, 152)"><g clip-path="url(#83673f8e93)"><g fill="#191919" fill-opacity="1"><g transform="translate(1.095277, 24.489506)"><g><path d="M 1.703125 -14.078125 C 1.492188 -14.617188 1.28125 -15.066406 1.0625 -15.421875 C 0.851562 -15.773438 0.59375 -16.117188 0.28125 -16.453125 L 0.28125 -16.5625 L 4.5 -16.5625 L 4.5 -16.453125 C 4.132812 -16.054688 3.953125 -15.578125 3.953125 -15.015625 C 3.953125 -14.691406 4.023438 -14.34375 4.171875 -13.96875 L 8.421875 -2.703125 L 12.71875 -13.890625 C 12.882812 -14.367188 12.96875 -14.765625 12.96875 -15.078125 C 12.96875 -15.648438 12.734375 -16.109375 12.265625 -16.453125 L 12.265625 -16.5625 L 15.203125 -16.5625 L 15.203125 -16.453125 C 14.773438 -16.171875 14.414062 -15.835938 14.125 -15.453125 C 13.84375 -15.078125 13.597656 -14.613281 13.390625 -14.0625 L 7.953125 0.09375 L 7.15625 0.09375 Z M 1.703125 -14.078125 "/></g></g></g><g fill="#191919" fill-opacity="1"><g transform="translate(15.860349, 24.489506)"><g><path d="M 6.75 0.265625 C 5.625 0.265625 4.628906 -0.00390625 3.765625 -0.546875 C 2.910156 -1.097656 2.25 -1.84375 1.78125 -2.78125 C 1.320312 -3.71875 1.09375 -4.765625 1.09375 -5.921875 C 1.09375 -7.066406 1.320312 -8.109375 1.78125 -9.046875 C 2.25 -9.992188 2.910156 -10.738281 3.765625 -11.28125 C 4.628906 -11.820312 5.625 -12.09375 6.75 -12.09375 C 7.863281 -12.09375 8.847656 -11.820312 9.703125 -11.28125 C 10.566406 -10.738281 11.234375 -9.992188 11.703125 -9.046875 C 12.171875 -8.109375 12.40625 -7.066406 12.40625 -5.921875 C 12.40625 -4.765625 12.171875 -3.71875 11.703125 -2.78125 C 11.234375 -1.84375 10.566406 -1.097656 9.703125 -0.546875 C 8.847656 -0.00390625 7.863281 0.265625 6.75 0.265625 Z M 6.75 -0.234375 C 7.820312 -0.234375 8.640625 -0.765625 9.203125 -1.828125 C 9.773438 -2.898438 10.0625 -4.265625 10.0625 -5.921875 C 10.0625 -7.578125 9.773438 -8.9375 9.203125 -10 C 8.640625 -11.0625 7.820312 -11.59375 6.75 -11.59375 C 5.675781 -11.59375 4.851562 -11.0625 4.28125 -10 C 3.71875 -8.9375 3.4375 -7.578125 3.4375 -5.921875 C 3.4375 -4.265625 3.71875 -2.898438 4.28125 -1.828125 C 4.851562 -0.765625 5.675781 -0.234375 6.75 -0.234375 Z M 6.75 -0.234375 "/></g></g></g><g fill="#191919" fill-opacity="1"><g transform="translate(28.874427, 24.489506)"><g><path d="M 6.515625 0.265625 C 5.503906 0.265625 4.585938 0.03125 3.765625 -0.4375 C 2.941406 -0.90625 2.289062 -1.582031 1.8125 -2.46875 C 1.34375 -3.363281 1.109375 -4.425781 1.109375 -5.65625 C 1.109375 -6.820312 1.382812 -7.898438 1.9375 -8.890625 C 2.488281 -9.878906 3.234375 -10.660156 4.171875 -11.234375 C 5.117188 -11.804688 6.144531 -12.09375 7.25 -12.09375 C 7.8125 -12.09375 8.394531 -12.007812 9 -11.84375 C 9.613281 -11.675781 10.140625 -11.453125 10.578125 -11.171875 L 10.578125 -8.046875 L 10.34375 -8.046875 C 10.101562 -9.046875 9.628906 -9.851562 8.921875 -10.46875 C 8.210938 -11.09375 7.398438 -11.40625 6.484375 -11.40625 C 5.890625 -11.40625 5.3125 -11.253906 4.75 -10.953125 C 4.195312 -10.660156 3.742188 -10.1875 3.390625 -9.53125 C 3.035156 -8.875 2.859375 -8.046875 2.859375 -7.046875 C 2.859375 -5.972656 3.0625 -5.007812 3.46875 -4.15625 C 3.875 -3.3125 4.429688 -2.644531 5.140625 -2.15625 C 5.847656 -1.664062 6.628906 -1.421875 7.484375 -1.421875 C 8.234375 -1.421875 8.925781 -1.617188 9.5625 -2.015625 C 10.207031 -2.410156 10.679688 -2.992188 10.984375 -3.765625 L 11.21875 -3.765625 C 11 -2.546875 10.453125 -1.566406 9.578125 -0.828125 C 8.703125 -0.0976562 7.679688 0.265625 6.515625 0.265625 Z M 6.515625 0.265625 "/></g></g></g><g fill="#191919" fill-opacity="1"><g transform="translate(40.279485, 24.489506)"><g><path d="M 11.484375 -3.765625 C 11.234375 -2.566406 10.664062 -1.59375 9.78125 -0.84375 C 8.90625 -0.101562 7.847656 0.265625 6.609375 0.265625 C 5.566406 0.265625 4.628906 0.03125 3.796875 -0.4375 C 2.972656 -0.90625 2.316406 -1.578125 1.828125 -2.453125 C 1.347656 -3.335938 1.109375 -4.382812 1.109375 -5.59375 C 1.109375 -6.882812 1.367188 -8.019531 1.890625 -9 C 2.410156 -9.988281 3.101562 -10.75 3.96875 -11.28125 C 4.84375 -11.820312 5.773438 -12.09375 6.765625 -12.09375 C 7.703125 -12.09375 8.507812 -11.882812 9.1875 -11.46875 C 9.863281 -11.0625 10.378906 -10.523438 10.734375 -9.859375 C 11.085938 -9.191406 11.265625 -8.460938 11.265625 -7.671875 L 2.9375 -7.671875 L 2.9375 -7.4375 C 2.9375 -6.132812 3.132812 -5.035156 3.53125 -4.140625 C 3.925781 -3.242188 4.460938 -2.566406 5.140625 -2.109375 C 5.828125 -1.648438 6.609375 -1.421875 7.484375 -1.421875 C 8.367188 -1.421875 9.140625 -1.628906 9.796875 -2.046875 C 10.460938 -2.460938 10.945312 -3.035156 11.25 -3.765625 Z M 6.015625 -11.390625 C 5.242188 -11.390625 4.570312 -11.117188 4 -10.578125 C 3.425781 -10.046875 3.085938 -9.242188 2.984375 -8.171875 L 9.015625 -8.171875 C 8.890625 -9.191406 8.570312 -9.984375 8.0625 -10.546875 C 7.5625 -11.109375 6.878906 -11.390625 6.015625 -11.390625 Z M 3.828125 -13.296875 L 3.578125 -13.296875 L 6.390625 -16.859375 L 6.859375 -16.859375 L 9.6875 -13.296875 L 9.421875 -13.296875 L 6.703125 -15.078125 L 6.5625 -15.078125 Z M 3.828125 -13.296875 "/></g></g></g><g fill="#191919" fill-opacity="1"><g transform="translate(52.157782, 24.489506)"><g/></g></g><g fill="#191919" fill-opacity="1"><g transform="translate(57.605146, 24.489506)"><g><path d="M 7.046875 -1.34375 C 7.648438 -1.34375 8.203125 -1.492188 8.703125 -1.796875 C 9.210938 -2.109375 9.710938 -2.625 10.203125 -3.34375 L 10.53125 -3.34375 C 10.257812 -2.375 9.722656 -1.519531 8.921875 -0.78125 C 8.128906 -0.0507812 7.101562 0.3125 5.84375 0.3125 C 4.863281 0.3125 4.003906 0.0976562 3.265625 -0.328125 C 2.523438 -0.753906 1.945312 -1.351562 1.53125 -2.125 C 1.113281 -2.90625 0.90625 -3.816406 0.90625 -4.859375 C 0.90625 -6.179688 1.195312 -7.394531 1.78125 -8.5 C 2.363281 -9.613281 3.164062 -10.5 4.1875 -11.15625 C 5.21875 -11.8125 6.367188 -12.140625 7.640625 -12.140625 C 8.890625 -12.140625 9.8125 -11.90625 10.40625 -11.4375 C 11.007812 -10.976562 11.3125 -10.394531 11.3125 -9.6875 C 11.3125 -8.9375 11.019531 -8.273438 10.4375 -7.703125 C 9.851562 -7.128906 8.976562 -6.691406 7.8125 -6.390625 C 6.820312 -6.148438 5.597656 -6.007812 4.140625 -5.96875 L 4.140625 -5.875 C 4.140625 -4.5625 4.375 -3.476562 4.84375 -2.625 C 5.320312 -1.769531 6.054688 -1.34375 7.046875 -1.34375 Z M 7.203125 -11.53125 C 6.660156 -11.53125 6.164062 -11.300781 5.71875 -10.84375 C 5.28125 -10.382812 4.925781 -9.773438 4.65625 -9.015625 C 4.394531 -8.253906 4.234375 -7.425781 4.171875 -6.53125 C 5.242188 -6.582031 6.085938 -6.738281 6.703125 -7 C 7.265625 -7.257812 7.6875 -7.648438 7.96875 -8.171875 C 8.257812 -8.691406 8.40625 -9.273438 8.40625 -9.921875 C 8.40625 -10.992188 8.003906 -11.53125 7.203125 -11.53125 Z M 7.203125 -11.53125 "/></g></g></g><g fill="#191919" fill-opacity="1"><g transform="translate(68.797246, 24.489506)"><g><path d="M 10.296875 0.3125 C 9.679688 0.3125 9.179688 0.113281 8.796875 -0.28125 C 8.410156 -0.675781 8.21875 -1.257812 8.21875 -2.03125 C 8.21875 -2.457031 8.269531 -2.894531 8.375 -3.34375 L 9.5625 -8.515625 C 9.613281 -8.753906 9.640625 -8.96875 9.640625 -9.15625 C 9.640625 -9.832031 9.335938 -10.171875 8.734375 -10.171875 C 8.085938 -10.171875 7.398438 -9.65625 6.671875 -8.625 C 5.953125 -7.59375 5.367188 -6.320312 4.921875 -4.8125 L 4 0 L 0.859375 0 L 2.3125 -7.640625 C 2.425781 -8.179688 2.484375 -8.648438 2.484375 -9.046875 C 2.484375 -9.421875 2.425781 -9.726562 2.3125 -9.96875 C 2.207031 -10.21875 2.050781 -10.4375 1.84375 -10.625 L 1.875 -10.75 L 6.21875 -12.140625 L 6.34375 -12.140625 L 5.546875 -7.9375 L 5.65625 -7.9375 C 6.144531 -9.226562 6.785156 -10.25 7.578125 -11 C 8.378906 -11.757812 9.269531 -12.140625 10.25 -12.140625 C 11.007812 -12.140625 11.617188 -11.910156 12.078125 -11.453125 C 12.535156 -10.992188 12.765625 -10.300781 12.765625 -9.375 C 12.765625 -8.882812 12.691406 -8.316406 12.546875 -7.671875 L 11.25 -2.078125 C 11.195312 -1.878906 11.171875 -1.695312 11.171875 -1.53125 C 11.171875 -1.207031 11.304688 -1.046875 11.578125 -1.046875 C 11.828125 -1.046875 12.085938 -1.253906 12.359375 -1.671875 C 12.628906 -2.085938 12.910156 -2.710938 13.203125 -3.546875 L 13.609375 -3.546875 C 13.234375 -2.097656 12.785156 -1.09375 12.265625 -0.53125 C 11.742188 0.03125 11.085938 0.3125 10.296875 0.3125 Z M 10.296875 0.3125 "/></g></g></g><g fill="#191919" fill-opacity="1"><g transform="translate(82.876119, 24.489506)"><g><path d="M 3.453125 0.3125 C 2.796875 0.3125 2.253906 0.0976562 1.828125 -0.328125 C 1.398438 -0.753906 1.1875 -1.382812 1.1875 -2.21875 C 1.1875 -2.507812 1.222656 -2.867188 1.296875 -3.296875 L 2.46875 -9.421875 C 2.5 -9.640625 2.515625 -9.78125 2.515625 -9.84375 C 2.515625 -10.507812 2.222656 -10.96875 1.640625 -11.21875 L 1.65625 -11.34375 C 3.28125 -11.925781 4.867188 -12.9375 6.421875 -14.375 L 6.53125 -14.375 L 6.03125 -11.828125 L 8.921875 -11.828125 L 8.515625 -10.984375 L 5.890625 -10.984375 L 4.265625 -2.25 C 4.210938 -2.039062 4.1875 -1.851562 4.1875 -1.6875 C 4.1875 -1.257812 4.351562 -1.046875 4.6875 -1.046875 C 4.925781 -1.046875 5.191406 -1.234375 5.484375 -1.609375 C 5.773438 -1.984375 6.117188 -2.628906 6.515625 -3.546875 L 6.90625 -3.546875 C 6.53125 -2.140625 6.054688 -1.144531 5.484375 -0.5625 C 4.921875 0.0195312 4.242188 0.3125 3.453125 0.3125 Z M 3.453125 0.3125 "/></g></g></g><g fill="#191919" fill-opacity="1"><g transform="translate(90.376931, 24.489506)"><g><path d="M 7.046875 -1.34375 C 7.648438 -1.34375 8.203125 -1.492188 8.703125 -1.796875 C 9.210938 -2.109375 9.710938 -2.625 10.203125 -3.34375 L 10.53125 -3.34375 C 10.257812 -2.375 9.722656 -1.519531 8.921875 -0.78125 C 8.128906 -0.0507812 7.101562 0.3125 5.84375 0.3125 C 4.863281 0.3125 4.003906 0.0976562 3.265625 -0.328125 C 2.523438 -0.753906 1.945312 -1.351562 1.53125 -2.125 C 1.113281 -2.90625 0.90625 -3.816406 0.90625 -4.859375 C 0.90625 -6.179688 1.195312 -7.394531 1.78125 -8.5 C 2.363281 -9.613281 3.164062 -10.5 4.1875 -11.15625 C 5.21875 -11.8125 6.367188 -12.140625 7.640625 -12.140625 C 8.890625 -12.140625 9.8125 -11.90625 10.40625 -11.4375 C 11.007812 -10.976562 11.3125 -10.394531 11.3125 -9.6875 C 11.3125 -8.9375 11.019531 -8.273438 10.4375 -7.703125 C 9.851562 -7.128906 8.976562 -6.691406 7.8125 -6.390625 C 6.820312 -6.148438 5.597656 -6.007812 4.140625 -5.96875 L 4.140625 -5.875 C 4.140625 -4.5625 4.375 -3.476562 4.84375 -2.625 C 5.320312 -1.769531 6.054688 -1.34375 7.046875 -1.34375 Z M 7.203125 -11.53125 C 6.660156 -11.53125 6.164062 -11.300781 5.71875 -10.84375 C 5.28125 -10.382812 4.925781 -9.773438 4.65625 -9.015625 C 4.394531 -8.253906 4.234375 -7.425781 4.171875 -6.53125 C 5.242188 -6.582031 6.085938 -6.738281 6.703125 -7 C 7.265625 -7.257812 7.6875 -7.648438 7.96875 -8.171875 C 8.257812 -8.691406 8.40625 -9.273438 8.40625 -9.921875 C 8.40625 -10.992188 8.003906 -11.53125 7.203125 -11.53125 Z M 7.203125 -11.53125 "/></g></g></g><g fill="#191919" fill-opacity="1"><g transform="translate(101.569031, 24.489506)"><g><path d="M 10.296875 0.3125 C 9.679688 0.3125 9.179688 0.113281 8.796875 -0.28125 C 8.410156 -0.675781 8.21875 -1.257812 8.21875 -2.03125 C 8.21875 -2.457031 8.269531 -2.894531 8.375 -3.34375 L 9.5625 -8.515625 C 9.613281 -8.753906 9.640625 -8.96875 9.640625 -9.15625 C 9.640625 -9.832031 9.335938 -10.171875 8.734375 -10.171875 C 8.085938 -10.171875 7.398438 -9.65625 6.671875 -8.625 C 5.953125 -7.59375 5.367188 -6.320312 4.921875 -4.8125 L 4 0 L 0.859375 0 L 2.3125 -7.640625 C 2.425781 -8.179688 2.484375 -8.648438 2.484375 -9.046875 C 2.484375 -9.421875 2.425781 -9.726562 2.3125 -9.96875 C 2.207031 -10.21875 2.050781 -10.4375 1.84375 -10.625 L 1.875 -10.75 L 6.21875 -12.140625 L 6.34375 -12.140625 L 5.546875 -7.9375 L 5.65625 -7.9375 C 6.144531 -9.226562 6.785156 -10.25 7.578125 -11 C 8.378906 -11.757812 9.269531 -12.140625 10.25 -12.140625 C 11.007812 -12.140625 11.617188 -11.910156 12.078125 -11.453125 C 12.535156 -10.992188 12.765625 -10.300781 12.765625 -9.375 C 12.765625 -8.882812 12.691406 -8.316406 12.546875 -7.671875 L 11.25 -2.078125 C 11.195312 -1.878906 11.171875 -1.695312 11.171875 -1.53125 C 11.171875 -1.207031 11.304688 -1.046875 11.578125 -1.046875 C 11.828125 -1.046875 12.085938 -1.253906 12.359375 -1.671875 C 12.628906 -2.085938 12.910156 -2.710938 13.203125 -3.546875 L 13.609375 -3.546875 C 13.234375 -2.097656 12.785156 -1.09375 12.265625 -0.53125 C 11.742188 0.03125 11.085938 0.3125 10.296875 0.3125 Z M 10.296875 0.3125 "/></g></g></g><g fill="#191919" fill-opacity="1"><g transform="translate(115.647904, 24.489506)"><g><path d="M 3.953125 0.3125 C 2.910156 0.3125 2.109375 -0.0664062 1.546875 -0.828125 C 0.984375 -1.597656 0.703125 -2.613281 0.703125 -3.875 C 0.703125 -5.3125 1.003906 -6.664062 1.609375 -7.9375 C 2.210938 -9.207031 3.035156 -10.222656 4.078125 -10.984375 C 5.117188 -11.753906 6.257812 -12.140625 7.5 -12.140625 C 8.34375 -12.140625 9.046875 -11.890625 9.609375 -11.390625 L 9.9375 -13.140625 C 10.03125 -13.660156 10.078125 -14.101562 10.078125 -14.46875 C 10.078125 -14.863281 10.023438 -15.191406 9.921875 -15.453125 C 9.828125 -15.710938 9.660156 -15.9375 9.421875 -16.125 L 9.4375 -16.234375 L 13.78125 -17.640625 L 13.890625 -17.640625 L 11.125 -2.25 C 11.0625 -1.875 11.03125 -1.644531 11.03125 -1.5625 C 11.03125 -1.21875 11.164062 -1.046875 11.4375 -1.046875 C 11.925781 -1.046875 12.460938 -1.878906 13.046875 -3.546875 L 13.453125 -3.546875 C 13.085938 -2.109375 12.648438 -1.101562 12.140625 -0.53125 C 11.640625 0.03125 11.035156 0.3125 10.328125 0.3125 C 9.671875 0.3125 9.15625 0.109375 8.78125 -0.296875 C 8.40625 -0.710938 8.21875 -1.304688 8.21875 -2.078125 C 8.21875 -2.335938 8.238281 -2.613281 8.28125 -2.90625 L 8.40625 -3.625 L 8.28125 -3.625 C 7.84375 -2.394531 7.257812 -1.429688 6.53125 -0.734375 C 5.800781 -0.0351562 4.941406 0.3125 3.953125 0.3125 Z M 5.328125 -1.421875 C 6.128906 -1.421875 6.875 -2.15625 7.5625 -3.625 C 8.257812 -5.101562 8.867188 -6.835938 9.390625 -8.828125 L 9.421875 -9.234375 C 9.421875 -9.992188 9.257812 -10.566406 8.9375 -10.953125 C 8.625 -11.335938 8.253906 -11.53125 7.828125 -11.53125 C 7.085938 -11.53125 6.414062 -11.109375 5.8125 -10.265625 C 5.207031 -9.421875 4.726562 -8.382812 4.375 -7.15625 C 4.03125 -5.9375 3.859375 -4.804688 3.859375 -3.765625 C 3.859375 -3.003906 3.976562 -2.421875 4.21875 -2.015625 C 4.46875 -1.617188 4.835938 -1.421875 5.328125 -1.421875 Z M 5.328125 -1.421875 "/></g></g></g><g fill="#191919" fill-opacity="1"><g transform="translate(129.253533, 24.489506)"><g><path d="M 7.046875 -1.34375 C 7.648438 -1.34375 8.203125 -1.492188 8.703125 -1.796875 C 9.210938 -2.109375 9.710938 -2.625 10.203125 -3.34375 L 10.53125 -3.34375 C 10.257812 -2.375 9.722656 -1.519531 8.921875 -0.78125 C 8.128906 -0.0507812 7.101562 0.3125 5.84375 0.3125 C 4.863281 0.3125 4.003906 0.0976562 3.265625 -0.328125 C 2.523438 -0.753906 1.945312 -1.351562 1.53125 -2.125 C 1.113281 -2.90625 0.90625 -3.816406 0.90625 -4.859375 C 0.90625 -6.179688 1.195312 -7.394531 1.78125 -8.5 C 2.363281 -9.613281 3.164062 -10.5 4.1875 -11.15625 C 5.21875 -11.8125 6.367188 -12.140625 7.640625 -12.140625 C 8.890625 -12.140625 9.8125 -11.90625 10.40625 -11.4375 C 11.007812 -10.976562 11.3125 -10.394531 11.3125 -9.6875 C 11.3125 -8.9375 11.019531 -8.273438 10.4375 -7.703125 C 9.851562 -7.128906 8.976562 -6.691406 7.8125 -6.390625 C 6.820312 -6.148438 5.597656 -6.007812 4.140625 -5.96875 L 4.140625 -5.875 C 4.140625 -4.5625 4.375 -3.476562 4.84375 -2.625 C 5.320312 -1.769531 6.054688 -1.34375 7.046875 -1.34375 Z M 7.203125 -11.53125 C 6.660156 -11.53125 6.164062 -11.300781 5.71875 -10.84375 C 5.28125 -10.382812 4.925781 -9.773438 4.65625 -9.015625 C 4.394531 -8.253906 4.234375 -7.425781 4.171875 -6.53125 C 5.242188 -6.582031 6.085938 -6.738281 6.703125 -7 C 7.265625 -7.257812 7.6875 -7.648438 7.96875 -8.171875 C 8.257812 -8.691406 8.40625 -9.273438 8.40625 -9.921875 C 8.40625 -10.992188 8.003906 -11.53125 7.203125 -11.53125 Z M 7.203125 -11.53125 "/></g></g></g><g fill="#191919" fill-opacity="1"><g transform="translate(140.445632, 24.489506)"><g/></g></g><g fill="#191919" fill-opacity="1"><g transform="translate(145.890873, 24.489506)"><g><path d="M 6.75 0.265625 C 5.625 0.265625 4.628906 -0.00390625 3.765625 -0.546875 C 2.910156 -1.097656 2.25 -1.84375 1.78125 -2.78125 C 1.320312 -3.71875 1.09375 -4.765625 1.09375 -5.921875 C 1.09375 -7.066406 1.320312 -8.109375 1.78125 -9.046875 C 2.25 -9.992188 2.910156 -10.738281 3.765625 -11.28125 C 4.628906 -11.820312 5.625 -12.09375 6.75 -12.09375 C 7.863281 -12.09375 8.847656 -11.820312 9.703125 -11.28125 C 10.566406 -10.738281 11.234375 -9.992188 11.703125 -9.046875 C 12.171875 -8.109375 12.40625 -7.066406 12.40625 -5.921875 C 12.40625 -4.765625 12.171875 -3.71875 11.703125 -2.78125 C 11.234375 -1.84375 10.566406 -1.097656 9.703125 -0.546875 C 8.847656 -0.00390625 7.863281 0.265625 6.75 0.265625 Z M 6.75 -0.234375 C 7.820312 -0.234375 8.640625 -0.765625 9.203125 -1.828125 C 9.773438 -2.898438 10.0625 -4.265625 10.0625 -5.921875 C 10.0625 -7.578125 9.773438 -8.9375 9.203125 -10 C 8.640625 -11.0625 7.820312 -11.59375 6.75 -11.59375 C 5.675781 -11.59375 4.851562 -11.0625 4.28125 -10 C 3.71875 -8.9375 3.4375 -7.578125 3.4375 -5.921875 C 3.4375 -4.265625 3.71875 -2.898438 4.28125 -1.828125 C 4.851562 -0.765625 5.675781 -0.234375 6.75 -0.234375 Z M 6.75 -0.234375 "/></g></g></g><g fill="#191919" fill-opacity="1"><g transform="translate(158.904952, 24.489506)"><g/></g></g><g fill="#191919" fill-opacity="1"><g transform="translate(164.347165, 24.489506)"><g><path d="M 9.0625 4.609375 C 9.476562 4.046875 9.6875 3.316406 9.6875 2.421875 L 9.6875 -2.0625 L 9.5625 -2.0625 C 9.226562 -1.382812 8.742188 -0.828125 8.109375 -0.390625 C 7.484375 0.046875 6.726562 0.265625 5.84375 0.265625 C 4.863281 0.265625 4.015625 0.00390625 3.296875 -0.515625 C 2.578125 -1.035156 2.03125 -1.742188 1.65625 -2.640625 C 1.289062 -3.546875 1.109375 -4.566406 1.109375 -5.703125 C 1.109375 -6.765625 1.351562 -7.785156 1.84375 -8.765625 C 2.332031 -9.753906 3.023438 -10.554688 3.921875 -11.171875 C 4.828125 -11.785156 5.863281 -12.09375 7.03125 -12.09375 C 8.863281 -12.09375 10.445312 -11.617188 11.78125 -10.671875 L 11.78125 2.421875 C 11.78125 3.316406 11.988281 4.046875 12.40625 4.609375 L 12.40625 4.734375 L 9.0625 4.734375 Z M 6.65625 -1.0625 C 7.519531 -1.0625 8.226562 -1.328125 8.78125 -1.859375 C 9.332031 -2.398438 9.632812 -3.082031 9.6875 -3.90625 L 9.6875 -9.25 C 9.632812 -9.863281 9.351562 -10.40625 8.84375 -10.875 C 8.332031 -11.351562 7.671875 -11.59375 6.859375 -11.59375 C 5.742188 -11.59375 4.878906 -11.113281 4.265625 -10.15625 C 3.660156 -9.207031 3.359375 -7.921875 3.359375 -6.296875 C 3.359375 -4.671875 3.65625 -3.390625 4.25 -2.453125 C 4.84375 -1.523438 5.644531 -1.0625 6.65625 -1.0625 Z M 6.65625 -1.0625 "/></g></g></g><g fill="#191919" fill-opacity="1"><g transform="translate(177.929131, 24.489506)"><g><path d="M 5.96875 0.265625 C 4.832031 0.265625 3.90625 -0.125 3.1875 -0.90625 C 2.476562 -1.6875 2.125 -2.691406 2.125 -3.921875 L 2.125 -8.734375 C 2.125 -9.253906 2.066406 -9.679688 1.953125 -10.015625 C 1.835938 -10.359375 1.648438 -10.65625 1.390625 -10.90625 L 1.390625 -11.03125 L 4.125 -12.09375 L 4.234375 -12.09375 L 4.234375 -3.953125 C 4.234375 -3.128906 4.476562 -2.445312 4.96875 -1.90625 C 5.457031 -1.375 6.097656 -1.109375 6.890625 -1.109375 C 7.710938 -1.109375 8.414062 -1.375 9 -1.90625 C 9.582031 -2.4375 9.875 -3.117188 9.875 -3.953125 L 9.875 -8.734375 C 9.875 -9.253906 9.8125 -9.6875 9.6875 -10.03125 C 9.570312 -10.382812 9.390625 -10.675781 9.140625 -10.90625 L 9.140625 -11.03125 L 11.859375 -12.09375 L 11.984375 -12.09375 L 11.984375 -2.671875 C 11.984375 -1.691406 12.234375 -1 12.734375 -0.59375 L 12.734375 -0.46875 L 9.984375 0.265625 L 9.875 0.265625 L 9.875 -2.125 L 9.75 -2.125 C 9.4375 -1.414062 8.945312 -0.835938 8.28125 -0.390625 C 7.625 0.046875 6.851562 0.265625 5.96875 0.265625 Z M 5.96875 0.265625 "/></g></g></g><g fill="#191919" fill-opacity="1"><g transform="translate(191.700394, 24.489506)"><g><path d="M 11.484375 -3.765625 C 11.234375 -2.566406 10.664062 -1.59375 9.78125 -0.84375 C 8.90625 -0.101562 7.847656 0.265625 6.609375 0.265625 C 5.566406 0.265625 4.628906 0.03125 3.796875 -0.4375 C 2.972656 -0.90625 2.316406 -1.578125 1.828125 -2.453125 C 1.347656 -3.335938 1.109375 -4.382812 1.109375 -5.59375 C 1.109375 -6.882812 1.367188 -8.019531 1.890625 -9 C 2.410156 -9.988281 3.101562 -10.75 3.96875 -11.28125 C 4.84375 -11.820312 5.773438 -12.09375 6.765625 -12.09375 C 7.703125 -12.09375 8.507812 -11.882812 9.1875 -11.46875 C 9.863281 -11.0625 10.378906 -10.523438 10.734375 -9.859375 C 11.085938 -9.191406 11.265625 -8.460938 11.265625 -7.671875 L 2.9375 -7.671875 L 2.9375 -7.4375 C 2.9375 -6.132812 3.132812 -5.035156 3.53125 -4.140625 C 3.925781 -3.242188 4.460938 -2.566406 5.140625 -2.109375 C 5.828125 -1.648438 6.609375 -1.421875 7.484375 -1.421875 C 8.367188 -1.421875 9.140625 -1.628906 9.796875 -2.046875 C 10.460938 -2.460938 10.945312 -3.035156 11.25 -3.765625 Z M 6.015625 -11.390625 C 5.242188 -11.390625 4.570312 -11.117188 4 -10.578125 C 3.425781 -10.046875 3.085938 -9.242188 2.984375 -8.171875 L 9.015625 -8.171875 C 8.890625 -9.191406 8.570312 -9.984375 8.0625 -10.546875 C 7.5625 -11.109375 6.878906 -11.390625 6.015625 -11.390625 Z M 6.015625 -11.390625 "/></g></g></g><g fill="#191919" fill-opacity="1"><g transform="translate(203.578691, 24.489506)"><g/></g></g><g fill="#191919" fill-opacity="1"><g transform="translate(209.020904, 24.489506)"><g><path d="M 11.484375 -3.765625 C 11.234375 -2.566406 10.664062 -1.59375 9.78125 -0.84375 C 8.90625 -0.101562 7.847656 0.265625 6.609375 0.265625 C 5.566406 0.265625 4.628906 0.03125 3.796875 -0.4375 C 2.972656 -0.90625 2.316406 -1.578125 1.828125 -2.453125 C 1.347656 -3.335938 1.109375 -4.382812 1.109375 -5.59375 C 1.109375 -6.882812 1.367188 -8.019531 1.890625 -9 C 2.410156 -9.988281 3.101562 -10.75 3.96875 -11.28125 C 4.84375 -11.820312 5.773438 -12.09375 6.765625 -12.09375 C 7.703125 -12.09375 8.507812 -11.882812 9.1875 -11.46875 C 9.863281 -11.0625 10.378906 -10.523438 10.734375 -9.859375 C 11.085938 -9.191406 11.265625 -8.460938 11.265625 -7.671875 L 2.9375 -7.671875 L 2.9375 -7.4375 C 2.9375 -6.132812 3.132812 -5.035156 3.53125 -4.140625 C 3.925781 -3.242188 4.460938 -2.566406 5.140625 -2.109375 C 5.828125 -1.648438 6.609375 -1.421875 7.484375 -1.421875 C 8.367188 -1.421875 9.140625 -1.628906 9.796875 -2.046875 C 10.460938 -2.460938 10.945312 -3.035156 11.25 -3.765625 Z M 6.015625 -11.390625 C 5.242188 -11.390625 4.570312 -11.117188 4 -10.578125 C 3.425781 -10.046875 3.085938 -9.242188 2.984375 -8.171875 L 9.015625 -8.171875 C 8.890625 -9.191406 8.570312 -9.984375 8.0625 -10.546875 C 7.5625 -11.109375 6.878906 -11.390625 6.015625 -11.390625 Z M 6.015625 -11.390625 "/></g></g></g><g fill="#191919" fill-opacity="1"><g transform="translate(220.899201, 24.489506)"><g><path d="M 5.421875 0.265625 C 3.898438 0.265625 2.597656 -0.0390625 1.515625 -0.65625 L 1.515625 -3.953125 L 1.75 -3.953125 C 1.9375 -3.210938 2.242188 -2.566406 2.671875 -2.015625 C 3.097656 -1.472656 3.585938 -1.054688 4.140625 -0.765625 C 4.691406 -0.472656 5.253906 -0.328125 5.828125 -0.328125 C 6.535156 -0.328125 7.113281 -0.539062 7.5625 -0.96875 C 8.007812 -1.394531 8.234375 -1.925781 8.234375 -2.5625 C 8.234375 -3.25 7.984375 -3.769531 7.484375 -4.125 C 6.992188 -4.476562 6.257812 -4.789062 5.28125 -5.0625 C 4.476562 -5.28125 3.8125 -5.515625 3.28125 -5.765625 C 2.75 -6.023438 2.304688 -6.382812 1.953125 -6.84375 C 1.609375 -7.3125 1.4375 -7.910156 1.4375 -8.640625 C 1.4375 -9.679688 1.828125 -10.515625 2.609375 -11.140625 C 3.390625 -11.773438 4.390625 -12.09375 5.609375 -12.09375 C 6.710938 -12.09375 7.863281 -11.785156 9.0625 -11.171875 L 9.0625 -8.1875 L 8.828125 -8.1875 C 8.578125 -9.101562 8.101562 -9.882812 7.40625 -10.53125 C 6.71875 -11.175781 5.945312 -11.5 5.09375 -11.5 C 4.382812 -11.5 3.832031 -11.316406 3.4375 -10.953125 C 3.039062 -10.597656 2.84375 -10.144531 2.84375 -9.59375 C 2.84375 -8.9375 3.082031 -8.441406 3.5625 -8.109375 C 4.039062 -7.785156 4.769531 -7.484375 5.75 -7.203125 C 6.550781 -6.960938 7.222656 -6.707031 7.765625 -6.4375 C 8.316406 -6.164062 8.769531 -5.785156 9.125 -5.296875 C 9.476562 -4.804688 9.65625 -4.171875 9.65625 -3.390625 C 9.65625 -2.566406 9.453125 -1.878906 9.046875 -1.328125 C 8.648438 -0.785156 8.128906 -0.382812 7.484375 -0.125 C 6.835938 0.132812 6.148438 0.265625 5.421875 0.265625 Z M 5.421875 0.265625 "/></g></g></g><g fill="#191919" fill-opacity="1"><g transform="translate(231.310449, 24.489506)"><g><path d="M 5.203125 0.265625 C 4.347656 0.265625 3.617188 -0.0078125 3.015625 -0.5625 C 2.421875 -1.113281 2.125 -1.890625 2.125 -2.890625 L 2.125 -9.75 C 2.125 -10.507812 1.769531 -11.03125 1.0625 -11.3125 L 1.0625 -11.4375 C 2.132812 -11.988281 3.15625 -12.867188 4.125 -14.078125 L 4.234375 -14.078125 L 4.234375 -11.828125 L 7.671875 -11.828125 L 7.40625 -11.078125 L 4.234375 -11.078125 L 4.234375 -2.890625 C 4.234375 -2.242188 4.414062 -1.738281 4.78125 -1.375 C 5.144531 -1.007812 5.601562 -0.828125 6.15625 -0.828125 C 6.519531 -0.828125 6.832031 -0.882812 7.09375 -1 C 7.351562 -1.125 7.546875 -1.265625 7.671875 -1.421875 L 7.90625 -1.296875 C 7.65625 -0.828125 7.296875 -0.445312 6.828125 -0.15625 C 6.359375 0.125 5.816406 0.265625 5.203125 0.265625 Z M 5.203125 0.265625 "/></g></g></g><g fill="#191919" fill-opacity="1"><g transform="translate(239.000557, 24.489506)"><g><path d="M 11.078125 -0.5 C 10.953125 -0.28125 10.742188 -0.0976562 10.453125 0.046875 C 10.160156 0.191406 9.84375 0.265625 9.5 0.265625 C 8.957031 0.265625 8.515625 0.128906 8.171875 -0.140625 C 7.835938 -0.410156 7.660156 -0.804688 7.640625 -1.328125 L 7.625 -1.609375 L 7.53125 -1.609375 C 7.175781 -1.003906 6.710938 -0.539062 6.140625 -0.21875 C 5.566406 0.101562 4.894531 0.265625 4.125 0.265625 C 3.1875 0.265625 2.453125 0.0351562 1.921875 -0.421875 C 1.398438 -0.878906 1.140625 -1.472656 1.140625 -2.203125 C 1.140625 -3.054688 1.453125 -3.765625 2.078125 -4.328125 C 2.710938 -4.898438 3.519531 -5.316406 4.5 -5.578125 C 5.488281 -5.847656 6.535156 -5.984375 7.640625 -5.984375 L 7.640625 -7.9375 C 7.640625 -8.78125 7.363281 -9.484375 6.8125 -10.046875 C 6.257812 -10.609375 5.535156 -10.890625 4.640625 -10.890625 C 3.929688 -10.890625 3.304688 -10.710938 2.765625 -10.359375 C 2.234375 -10.015625 1.816406 -9.546875 1.515625 -8.953125 L 1.28125 -8.953125 C 1.53125 -9.910156 2.03125 -10.671875 2.78125 -11.234375 C 3.539062 -11.804688 4.441406 -12.09375 5.484375 -12.09375 C 6.796875 -12.09375 7.832031 -11.707031 8.59375 -10.9375 C 9.363281 -10.164062 9.75 -9.164062 9.75 -7.9375 L 9.75 -1.328125 C 9.75 -1.046875 9.816406 -0.832031 9.953125 -0.6875 C 10.085938 -0.539062 10.257812 -0.46875 10.46875 -0.46875 C 10.726562 -0.46875 10.890625 -0.515625 10.953125 -0.609375 Z M 5.28125 -0.859375 C 5.976562 -0.859375 6.546875 -1.113281 6.984375 -1.625 C 7.421875 -2.132812 7.640625 -2.710938 7.640625 -3.359375 L 7.640625 -5.484375 C 6.316406 -5.453125 5.269531 -5.195312 4.5 -4.71875 C 3.738281 -4.238281 3.359375 -3.570312 3.359375 -2.71875 C 3.359375 -2.101562 3.546875 -1.640625 3.921875 -1.328125 C 4.304688 -1.015625 4.757812 -0.859375 5.28125 -0.859375 Z M 5.375 -13.296875 L 5.109375 -13.296875 L 6.296875 -16.859375 L 8.171875 -16.859375 L 8.171875 -16.59375 Z M 5.375 -13.296875 "/></g></g></g><g fill="#191919" fill-opacity="1"><g transform="translate(250.192652, 24.489506)"><g/></g></g><g fill="#191919" fill-opacity="1"><g transform="translate(255.636444, 24.489506)"><g><path d="M -0.328125 4.875 C -1.429688 4.875 -2.363281 4.640625 -3.125 4.171875 L -2.671875 1.59375 L -2.5625 1.59375 C -2.351562 2.269531 -2.117188 2.832031 -1.859375 3.28125 C -1.609375 3.726562 -1.289062 3.953125 -0.90625 3.953125 C -0.125 3.953125 0.394531 3.203125 0.65625 1.703125 L 2.578125 -9.09375 C 2.640625 -9.425781 2.671875 -9.75 2.671875 -10.0625 C 2.671875 -10.375 2.617188 -10.628906 2.515625 -10.828125 C 2.410156 -11.023438 2.234375 -11.203125 1.984375 -11.359375 L 2.015625 -11.484375 C 2.597656 -11.710938 3.050781 -12.007812 3.375 -12.375 C 3.707031 -12.738281 3.992188 -13.238281 4.234375 -13.875 C 5.203125 -16.414062 7.066406 -17.6875 9.828125 -17.6875 L 11.03125 -17.6875 L 10.484375 -14.84375 L 10.375 -14.84375 C 9.769531 -15.144531 8.976562 -15.296875 8 -15.296875 C 7.070312 -15.296875 6.300781 -15.082031 5.6875 -14.65625 C 5.070312 -14.238281 4.765625 -13.691406 4.765625 -13.015625 C 4.765625 -12.421875 5.117188 -12.023438 5.828125 -11.828125 L 9.015625 -11.828125 L 8.65625 -10.984375 L 6.078125 -10.984375 L 3.953125 0.875 C 3.734375 2.125 3.265625 3.101562 2.546875 3.8125 C 1.828125 4.519531 0.867188 4.875 -0.328125 4.875 Z M -0.328125 4.875 "/></g></g></g><g fill="#191919" fill-opacity="1"><g transform="translate(262.853312, 24.489506)"><g><path d="M 3.953125 0.3125 C 2.910156 0.3125 2.109375 -0.0664062 1.546875 -0.828125 C 0.984375 -1.597656 0.703125 -2.613281 0.703125 -3.875 C 0.703125 -5.332031 1.003906 -6.691406 1.609375 -7.953125 C 2.210938 -9.210938 3.035156 -10.222656 4.078125 -10.984375 C 5.128906 -11.753906 6.3125 -12.140625 7.625 -12.140625 C 8.789062 -12.140625 9.742188 -11.800781 10.484375 -11.125 L 12.90625 -12.140625 L 13.015625 -12.140625 L 11.109375 -2.25 C 11.035156 -1.875 11 -1.644531 11 -1.5625 C 11 -1.21875 11.132812 -1.046875 11.40625 -1.046875 C 11.894531 -1.046875 12.429688 -1.878906 13.015625 -3.546875 L 13.421875 -3.546875 C 13.054688 -2.109375 12.617188 -1.101562 12.109375 -0.53125 C 11.609375 0.03125 11.003906 0.3125 10.296875 0.3125 C 9.648438 0.3125 9.132812 0.109375 8.75 -0.296875 C 8.375 -0.703125 8.1875 -1.28125 8.1875 -2.03125 C 8.1875 -2.320312 8.210938 -2.613281 8.265625 -2.90625 L 8.375 -3.625 L 8.265625 -3.625 C 7.316406 -1 5.878906 0.3125 3.953125 0.3125 Z M 5.328125 -1.421875 C 6.128906 -1.421875 6.867188 -2.15625 7.546875 -3.625 C 8.222656 -5.09375 8.832031 -6.828125 9.375 -8.828125 L 9.390625 -9.234375 C 9.390625 -9.992188 9.234375 -10.566406 8.921875 -10.953125 C 8.617188 -11.335938 8.253906 -11.53125 7.828125 -11.53125 C 7.085938 -11.53125 6.414062 -11.109375 5.8125 -10.265625 C 5.207031 -9.421875 4.726562 -8.382812 4.375 -7.15625 C 4.03125 -5.9375 3.859375 -4.804688 3.859375 -3.765625 C 3.859375 -3.003906 3.976562 -2.421875 4.21875 -2.015625 C 4.46875 -1.617188 4.835938 -1.421875 5.328125 -1.421875 Z M 5.328125 -1.421875 "/></g></g></g><g fill="#191919" fill-opacity="1"><g transform="translate(276.411616, 24.489506)"><g><path d="M 7.15625 0.3125 C 6.582031 0.3125 6.078125 0.253906 5.640625 0.140625 C 5.210938 0.0234375 4.710938 -0.128906 4.140625 -0.328125 C 3.671875 -0.503906 3.296875 -0.628906 3.015625 -0.703125 C 2.742188 -0.773438 2.445312 -0.8125 2.125 -0.8125 C 1.382812 -0.8125 0.769531 -0.53125 0.28125 0.03125 L -0.546875 0.03125 L -0.5 -0.21875 L 7.859375 -9.46875 L 5.234375 -9.46875 C 4.535156 -9.46875 3.96875 -9.40625 3.53125 -9.28125 C 3.101562 -9.164062 2.738281 -8.96875 2.4375 -8.6875 C 2.132812 -8.40625 1.8125 -7.988281 1.46875 -7.4375 L 1.234375 -7.4375 L 2.65625 -11.828125 L 10.796875 -11.828125 L 10.71875 -11.53125 L 2.859375 -2.84375 C 3.347656 -3.09375 3.882812 -3.21875 4.46875 -3.21875 C 5.050781 -3.21875 5.753906 -3.046875 6.578125 -2.703125 C 7.191406 -2.460938 7.644531 -2.34375 7.9375 -2.34375 C 8.71875 -2.34375 9.140625 -2.894531 9.203125 -4 L 9.4375 -4 C 9.601562 -3.507812 9.6875 -3.015625 9.6875 -2.515625 C 9.6875 -1.691406 9.472656 -1.015625 9.046875 -0.484375 C 8.617188 0.046875 7.988281 0.3125 7.15625 0.3125 Z M 7.15625 0.3125 "/></g></g></g><g fill="#191919" fill-opacity="1"><g transform="translate(286.586245, 24.489506)"><g><path d="M 7.046875 -1.34375 C 7.648438 -1.34375 8.203125 -1.492188 8.703125 -1.796875 C 9.210938 -2.109375 9.710938 -2.625 10.203125 -3.34375 L 10.53125 -3.34375 C 10.257812 -2.375 9.722656 -1.519531 8.921875 -0.78125 C 8.128906 -0.0507812 7.101562 0.3125 5.84375 0.3125 C 4.863281 0.3125 4.003906 0.0976562 3.265625 -0.328125 C 2.523438 -0.753906 1.945312 -1.351562 1.53125 -2.125 C 1.113281 -2.90625 0.90625 -3.816406 0.90625 -4.859375 C 0.90625 -6.179688 1.195312 -7.394531 1.78125 -8.5 C 2.363281 -9.613281 3.164062 -10.5 4.1875 -11.15625 C 5.21875 -11.8125 6.367188 -12.140625 7.640625 -12.140625 C 8.890625 -12.140625 9.8125 -11.90625 10.40625 -11.4375 C 11.007812 -10.976562 11.3125 -10.394531 11.3125 -9.6875 C 11.3125 -8.9375 11.019531 -8.273438 10.4375 -7.703125 C 9.851562 -7.128906 8.976562 -6.691406 7.8125 -6.390625 C 6.820312 -6.148438 5.597656 -6.007812 4.140625 -5.96875 L 4.140625 -5.875 C 4.140625 -4.5625 4.375 -3.476562 4.84375 -2.625 C 5.320312 -1.769531 6.054688 -1.34375 7.046875 -1.34375 Z M 7.203125 -11.53125 C 6.660156 -11.53125 6.164062 -11.300781 5.71875 -10.84375 C 5.28125 -10.382812 4.925781 -9.773438 4.65625 -9.015625 C 4.394531 -8.253906 4.234375 -7.425781 4.171875 -6.53125 C 5.242188 -6.582031 6.085938 -6.738281 6.703125 -7 C 7.265625 -7.257812 7.6875 -7.648438 7.96875 -8.171875 C 8.257812 -8.691406 8.40625 -9.273438 8.40625 -9.921875 C 8.40625 -10.992188 8.003906 -11.53125 7.203125 -11.53125 Z M 7.203125 -11.53125 "/></g></g></g><g fill="#191919" fill-opacity="1"><g transform="translate(297.778344, 24.489506)"><g><path d="M 10.296875 0.3125 C 9.679688 0.3125 9.179688 0.113281 8.796875 -0.28125 C 8.410156 -0.675781 8.21875 -1.257812 8.21875 -2.03125 C 8.21875 -2.457031 8.269531 -2.894531 8.375 -3.34375 L 9.5625 -8.515625 C 9.613281 -8.753906 9.640625 -8.96875 9.640625 -9.15625 C 9.640625 -9.832031 9.335938 -10.171875 8.734375 -10.171875 C 8.085938 -10.171875 7.398438 -9.65625 6.671875 -8.625 C 5.953125 -7.59375 5.367188 -6.320312 4.921875 -4.8125 L 4 0 L 0.859375 0 L 2.3125 -7.640625 C 2.425781 -8.179688 2.484375 -8.648438 2.484375 -9.046875 C 2.484375 -9.421875 2.425781 -9.726562 2.3125 -9.96875 C 2.207031 -10.21875 2.050781 -10.4375 1.84375 -10.625 L 1.875 -10.75 L 6.21875 -12.140625 L 6.34375 -12.140625 L 5.546875 -7.9375 L 5.65625 -7.9375 C 6.144531 -9.226562 6.785156 -10.25 7.578125 -11 C 8.378906 -11.757812 9.269531 -12.140625 10.25 -12.140625 C 11.007812 -12.140625 11.617188 -11.910156 12.078125 -11.453125 C 12.535156 -10.992188 12.765625 -10.300781 12.765625 -9.375 C 12.765625 -8.882812 12.691406 -8.316406 12.546875 -7.671875 L 11.25 -2.078125 C 11.195312 -1.878906 11.171875 -1.695312 11.171875 -1.53125 C 11.171875 -1.207031 11.304688 -1.046875 11.578125 -1.046875 C 11.828125 -1.046875 12.085938 -1.253906 12.359375 -1.671875 C 12.628906 -2.085938 12.910156 -2.710938 13.203125 -3.546875 L 13.609375 -3.546875 C 13.234375 -2.097656 12.785156 -1.09375 12.265625 -0.53125 C 11.742188 0.03125 11.085938 0.3125 10.296875 0.3125 Z M 10.296875 0.3125 "/></g></g></g><g fill="#191919" fill-opacity="1"><g transform="translate(311.857218, 24.489506)"><g><path d="M 3.953125 0.3125 C 2.910156 0.3125 2.109375 -0.0664062 1.546875 -0.828125 C 0.984375 -1.597656 0.703125 -2.613281 0.703125 -3.875 C 0.703125 -5.3125 1.003906 -6.664062 1.609375 -7.9375 C 2.210938 -9.207031 3.035156 -10.222656 4.078125 -10.984375 C 5.117188 -11.753906 6.257812 -12.140625 7.5 -12.140625 C 8.34375 -12.140625 9.046875 -11.890625 9.609375 -11.390625 L 9.9375 -13.140625 C 10.03125 -13.660156 10.078125 -14.101562 10.078125 -14.46875 C 10.078125 -14.863281 10.023438 -15.191406 9.921875 -15.453125 C 9.828125 -15.710938 9.660156 -15.9375 9.421875 -16.125 L 9.4375 -16.234375 L 13.78125 -17.640625 L 13.890625 -17.640625 L 11.125 -2.25 C 11.0625 -1.875 11.03125 -1.644531 11.03125 -1.5625 C 11.03125 -1.21875 11.164062 -1.046875 11.4375 -1.046875 C 11.925781 -1.046875 12.460938 -1.878906 13.046875 -3.546875 L 13.453125 -3.546875 C 13.085938 -2.109375 12.648438 -1.101562 12.140625 -0.53125 C 11.640625 0.03125 11.035156 0.3125 10.328125 0.3125 C 9.671875 0.3125 9.15625 0.109375 8.78125 -0.296875 C 8.40625 -0.710938 8.21875 -1.304688 8.21875 -2.078125 C 8.21875 -2.335938 8.238281 -2.613281 8.28125 -2.90625 L 8.40625 -3.625 L 8.28125 -3.625 C 7.84375 -2.394531 7.257812 -1.429688 6.53125 -0.734375 C 5.800781 -0.0351562 4.941406 0.3125 3.953125 0.3125 Z M 5.328125 -1.421875 C 6.128906 -1.421875 6.875 -2.15625 7.5625 -3.625 C 8.257812 -5.101562 8.867188 -6.835938 9.390625 -8.828125 L 9.421875 -9.234375 C 9.421875 -9.992188 9.257812 -10.566406 8.9375 -10.953125 C 8.625 -11.335938 8.253906 -11.53125 7.828125 -11.53125 C 7.085938 -11.53125 6.414062 -11.109375 5.8125 -10.265625 C 5.207031 -9.421875 4.726562 -8.382812 4.375 -7.15625 C 4.03125 -5.9375 3.859375 -4.804688 3.859375 -3.765625 C 3.859375 -3.003906 3.976562 -2.421875 4.21875 -2.015625 C 4.46875 -1.617188 4.835938 -1.421875 5.328125 -1.421875 Z M 5.328125 -1.421875 "/></g></g></g><g fill="#191919" fill-opacity="1"><g transform="translate(325.462846, 24.489506)"><g><path d="M 5.875 0.3125 C 4.832031 0.3125 3.925781 0.09375 3.15625 -0.34375 C 2.394531 -0.78125 1.804688 -1.378906 1.390625 -2.140625 C 0.984375 -2.910156 0.78125 -3.785156 0.78125 -4.765625 C 0.78125 -6.128906 1.0625 -7.375 1.625 -8.5 C 2.195312 -9.632812 2.972656 -10.523438 3.953125 -11.171875 C 4.929688 -11.816406 6.019531 -12.140625 7.21875 -12.140625 C 8.257812 -12.140625 9.164062 -11.921875 9.9375 -11.484375 C 10.71875 -11.054688 11.3125 -10.457031 11.71875 -9.6875 C 12.125 -8.925781 12.328125 -8.054688 12.328125 -7.078125 C 12.328125 -5.703125 12.039062 -4.453125 11.46875 -3.328125 C 10.90625 -2.203125 10.128906 -1.3125 9.140625 -0.65625 C 8.160156 -0.0078125 7.070312 0.3125 5.875 0.3125 Z M 5.84375 -0.234375 C 6.476562 -0.234375 7.035156 -0.640625 7.515625 -1.453125 C 7.992188 -2.265625 8.367188 -3.285156 8.640625 -4.515625 C 8.910156 -5.753906 9.046875 -6.957031 9.046875 -8.125 C 9.046875 -10.4375 8.445312 -11.59375 7.25 -11.59375 C 6.613281 -11.59375 6.054688 -11.1875 5.578125 -10.375 C 5.097656 -9.5625 4.726562 -8.539062 4.46875 -7.3125 C 4.207031 -6.082031 4.078125 -4.882812 4.078125 -3.71875 C 4.078125 -1.394531 4.664062 -0.234375 5.84375 -0.234375 Z M 5.84375 -0.234375 "/></g></g></g><g fill="#191919" fill-opacity="1"><g transform="translate(338.098333, 24.489506)"><g/></g></g><g clip-path="url(#5658d41bac)"><g fill="#191919" fill-opacity="1"><g transform="translate(343.545401, 24.489506)"><g><path d="M 11.484375 -3.765625 C 11.234375 -2.566406 10.664062 -1.59375 9.78125 -0.84375 C 8.90625 -0.101562 7.847656 0.265625 6.609375 0.265625 C 5.566406 0.265625 4.628906 0.03125 3.796875 -0.4375 C 2.972656 -0.90625 2.316406 -1.578125 1.828125 -2.453125 C 1.347656 -3.335938 1.109375 -4.382812 1.109375 -5.59375 C 1.109375 -6.882812 1.367188 -8.019531 1.890625 -9 C 2.410156 -9.988281 3.101562 -10.75 3.96875 -11.28125 C 4.84375 -11.820312 5.773438 -12.09375 6.765625 -12.09375 C 7.703125 -12.09375 8.507812 -11.882812 9.1875 -11.46875 C 9.863281 -11.0625 10.378906 -10.523438 10.734375 -9.859375 C 11.085938 -9.191406 11.265625 -8.460938 11.265625 -7.671875 L 2.9375 -7.671875 L 2.9375 -7.4375 C 2.9375 -6.132812 3.132812 -5.035156 3.53125 -4.140625 C 3.925781 -3.242188 4.460938 -2.566406 5.140625 -2.109375 C 5.828125 -1.648438 6.609375 -1.421875 7.484375 -1.421875 C 8.367188 -1.421875 9.140625 -1.628906 9.796875 -2.046875 C 10.460938 -2.460938 10.945312 -3.035156 11.25 -3.765625 Z M 6.015625 -11.390625 C 5.242188 -11.390625 4.570312 -11.117188 4 -10.578125 C 3.425781 -10.046875 3.085938 -9.242188 2.984375 -8.171875 L 9.015625 -8.171875 C 8.890625 -9.191406 8.570312 -9.984375 8.0625 -10.546875 C 7.5625 -11.109375 6.878906 -11.390625 6.015625 -11.390625 Z M 6.015625 -11.390625 "/></g></g></g></g><g fill="#191919" fill-opacity="1"><g transform="translate(48.047981, 47.923405)"><g><path d="M 1.640625 4.609375 C 2.046875 4.046875 2.25 3.316406 2.25 2.421875 L 2.25 -8.734375 C 2.25 -9.253906 2.1875 -9.679688 2.0625 -10.015625 C 1.945312 -10.359375 1.765625 -10.65625 1.515625 -10.90625 L 1.515625 -11.03125 L 4.234375 -12.09375 L 4.359375 -12.09375 L 4.359375 -9.75 L 4.46875 -9.75 C 4.789062 -10.445312 5.273438 -11.007812 5.921875 -11.4375 C 6.566406 -11.875 7.300781 -12.09375 8.125 -12.09375 C 9.144531 -12.09375 10.019531 -11.835938 10.75 -11.328125 C 11.488281 -10.828125 12.050781 -10.140625 12.4375 -9.265625 C 12.820312 -8.390625 13.015625 -7.398438 13.015625 -6.296875 C 13.015625 -5.046875 12.757812 -3.921875 12.25 -2.921875 C 11.738281 -1.921875 11.046875 -1.140625 10.171875 -0.578125 C 9.304688 -0.015625 8.367188 0.265625 7.359375 0.265625 C 6.160156 0.265625 5.160156 -0.0703125 4.359375 -0.75 L 4.359375 2.421875 C 4.359375 3.316406 4.5625 4.046875 4.96875 4.609375 L 4.96875 4.734375 L 1.640625 4.734375 Z M 7.390625 -0.28125 C 8.460938 -0.28125 9.304688 -0.769531 9.921875 -1.75 C 10.546875 -2.726562 10.859375 -4.039062 10.859375 -5.6875 C 10.859375 -6.707031 10.707031 -7.601562 10.40625 -8.375 C 10.113281 -9.15625 9.695312 -9.75 9.15625 -10.15625 C 8.625 -10.5625 8.019531 -10.765625 7.34375 -10.765625 C 6.5 -10.765625 5.800781 -10.5 5.25 -9.96875 C 4.695312 -9.445312 4.398438 -8.769531 4.359375 -7.9375 L 4.359375 -3.5 C 4.390625 -3 4.519531 -2.5 4.75 -2 C 4.988281 -1.5 5.332031 -1.085938 5.78125 -0.765625 C 6.238281 -0.441406 6.773438 -0.28125 7.390625 -0.28125 Z M 7.390625 -0.28125 "/></g></g></g><g fill="#191919" fill-opacity="1"><g transform="translate(61.700933, 47.923405)"><g><path d="M 6.75 0.265625 C 5.625 0.265625 4.628906 -0.00390625 3.765625 -0.546875 C 2.910156 -1.097656 2.25 -1.84375 1.78125 -2.78125 C 1.320312 -3.71875 1.09375 -4.765625 1.09375 -5.921875 C 1.09375 -7.066406 1.320312 -8.109375 1.78125 -9.046875 C 2.25 -9.992188 2.910156 -10.738281 3.765625 -11.28125 C 4.628906 -11.820312 5.625 -12.09375 6.75 -12.09375 C 7.863281 -12.09375 8.847656 -11.820312 9.703125 -11.28125 C 10.566406 -10.738281 11.234375 -9.992188 11.703125 -9.046875 C 12.171875 -8.109375 12.40625 -7.066406 12.40625 -5.921875 C 12.40625 -4.765625 12.171875 -3.71875 11.703125 -2.78125 C 11.234375 -1.84375 10.566406 -1.097656 9.703125 -0.546875 C 8.847656 -0.00390625 7.863281 0.265625 6.75 0.265625 Z M 6.75 -0.234375 C 7.820312 -0.234375 8.640625 -0.765625 9.203125 -1.828125 C 9.773438 -2.898438 10.0625 -4.265625 10.0625 -5.921875 C 10.0625 -7.578125 9.773438 -8.9375 9.203125 -10 C 8.640625 -11.0625 7.820312 -11.59375 6.75 -11.59375 C 5.675781 -11.59375 4.851562 -11.0625 4.28125 -10 C 3.71875 -8.9375 3.4375 -7.578125 3.4375 -5.921875 C 3.4375 -4.265625 3.71875 -2.898438 4.28125 -1.828125 C 4.851562 -0.765625 5.675781 -0.234375 6.75 -0.234375 Z M 6.75 -0.234375 "/></g></g></g><g fill="#191919" fill-opacity="1"><g transform="translate(74.715012, 47.923405)"><g><path d="M 1.78125 -0.125 C 2.1875 -0.6875 2.390625 -1.414062 2.390625 -2.3125 L 2.390625 -8.734375 C 2.390625 -9.253906 2.328125 -9.6875 2.203125 -10.03125 C 2.078125 -10.382812 1.890625 -10.675781 1.640625 -10.90625 L 1.640625 -11.03125 L 4.375 -12.09375 L 4.5 -12.09375 L 4.5 -9.34375 L 4.609375 -9.34375 C 4.898438 -10.25 5.363281 -10.929688 6 -11.390625 C 6.632812 -11.859375 7.519531 -12.09375 8.65625 -12.09375 L 8.65625 -10.0625 L 7.5 -10.0625 C 5.5 -10.0625 4.5 -9.171875 4.5 -7.390625 L 4.5 -2.3125 C 4.5 -1.414062 4.703125 -0.6875 5.109375 -0.125 L 5.109375 0 L 1.78125 0 Z M 1.78125 -0.125 "/></g></g></g><g fill="#191919" fill-opacity="1"><g transform="translate(83.280619, 47.923405)"><g/></g></g><g fill="#191919" fill-opacity="1"><g transform="translate(88.722832, 47.923405)"><g><path d="M 1.78125 -0.125 C 2.1875 -0.6875 2.390625 -1.414062 2.390625 -2.3125 L 2.390625 -8.734375 C 2.390625 -9.253906 2.328125 -9.6875 2.203125 -10.03125 C 2.078125 -10.382812 1.890625 -10.675781 1.640625 -10.90625 L 1.640625 -11.03125 L 4.375 -12.09375 L 4.5 -12.09375 L 4.5 -2.3125 C 4.5 -1.414062 4.703125 -0.6875 5.109375 -0.125 L 5.109375 0 L 1.78125 0 Z M 3.4375 -13.65625 C 3.0625 -13.65625 2.738281 -13.789062 2.46875 -14.0625 C 2.195312 -14.34375 2.0625 -14.675781 2.0625 -15.0625 C 2.0625 -15.4375 2.195312 -15.753906 2.46875 -16.015625 C 2.75 -16.285156 3.070312 -16.421875 3.4375 -16.421875 C 3.832031 -16.421875 4.164062 -16.285156 4.4375 -16.015625 C 4.707031 -15.753906 4.84375 -15.4375 4.84375 -15.0625 C 4.84375 -14.664062 4.707031 -14.332031 4.4375 -14.0625 C 4.164062 -13.789062 3.832031 -13.65625 3.4375 -13.65625 Z M 3.4375 -13.65625 "/></g></g></g><g fill="#191919" fill-opacity="1"><g transform="translate(95.016877, 47.923405)"><g><path d="M 5.421875 0.265625 C 3.898438 0.265625 2.597656 -0.0390625 1.515625 -0.65625 L 1.515625 -3.953125 L 1.75 -3.953125 C 1.9375 -3.210938 2.242188 -2.566406 2.671875 -2.015625 C 3.097656 -1.472656 3.585938 -1.054688 4.140625 -0.765625 C 4.691406 -0.472656 5.253906 -0.328125 5.828125 -0.328125 C 6.535156 -0.328125 7.113281 -0.539062 7.5625 -0.96875 C 8.007812 -1.394531 8.234375 -1.925781 8.234375 -2.5625 C 8.234375 -3.25 7.984375 -3.769531 7.484375 -4.125 C 6.992188 -4.476562 6.257812 -4.789062 5.28125 -5.0625 C 4.476562 -5.28125 3.8125 -5.515625 3.28125 -5.765625 C 2.75 -6.023438 2.304688 -6.382812 1.953125 -6.84375 C 1.609375 -7.3125 1.4375 -7.910156 1.4375 -8.640625 C 1.4375 -9.679688 1.828125 -10.515625 2.609375 -11.140625 C 3.390625 -11.773438 4.390625 -12.09375 5.609375 -12.09375 C 6.710938 -12.09375 7.863281 -11.785156 9.0625 -11.171875 L 9.0625 -8.1875 L 8.828125 -8.1875 C 8.578125 -9.101562 8.101562 -9.882812 7.40625 -10.53125 C 6.71875 -11.175781 5.945312 -11.5 5.09375 -11.5 C 4.382812 -11.5 3.832031 -11.316406 3.4375 -10.953125 C 3.039062 -10.597656 2.84375 -10.144531 2.84375 -9.59375 C 2.84375 -8.9375 3.082031 -8.441406 3.5625 -8.109375 C 4.039062 -7.785156 4.769531 -7.484375 5.75 -7.203125 C 6.550781 -6.960938 7.222656 -6.707031 7.765625 -6.4375 C 8.316406 -6.164062 8.769531 -5.785156 9.125 -5.296875 C 9.476562 -4.804688 9.65625 -4.171875 9.65625 -3.390625 C 9.65625 -2.566406 9.453125 -1.878906 9.046875 -1.328125 C 8.648438 -0.785156 8.128906 -0.382812 7.484375 -0.125 C 6.835938 0.132812 6.148438 0.265625 5.421875 0.265625 Z M 5.421875 0.265625 "/></g></g></g><g fill="#191919" fill-opacity="1"><g transform="translate(105.428125, 47.923405)"><g><path d="M 5.421875 0.265625 C 3.898438 0.265625 2.597656 -0.0390625 1.515625 -0.65625 L 1.515625 -3.953125 L 1.75 -3.953125 C 1.9375 -3.210938 2.242188 -2.566406 2.671875 -2.015625 C 3.097656 -1.472656 3.585938 -1.054688 4.140625 -0.765625 C 4.691406 -0.472656 5.253906 -0.328125 5.828125 -0.328125 C 6.535156 -0.328125 7.113281 -0.539062 7.5625 -0.96875 C 8.007812 -1.394531 8.234375 -1.925781 8.234375 -2.5625 C 8.234375 -3.25 7.984375 -3.769531 7.484375 -4.125 C 6.992188 -4.476562 6.257812 -4.789062 5.28125 -5.0625 C 4.476562 -5.28125 3.8125 -5.515625 3.28125 -5.765625 C 2.75 -6.023438 2.304688 -6.382812 1.953125 -6.84375 C 1.609375 -7.3125 1.4375 -7.910156 1.4375 -8.640625 C 1.4375 -9.679688 1.828125 -10.515625 2.609375 -11.140625 C 3.390625 -11.773438 4.390625 -12.09375 5.609375 -12.09375 C 6.710938 -12.09375 7.863281 -11.785156 9.0625 -11.171875 L 9.0625 -8.1875 L 8.828125 -8.1875 C 8.578125 -9.101562 8.101562 -9.882812 7.40625 -10.53125 C 6.71875 -11.175781 5.945312 -11.5 5.09375 -11.5 C 4.382812 -11.5 3.832031 -11.316406 3.4375 -10.953125 C 3.039062 -10.597656 2.84375 -10.144531 2.84375 -9.59375 C 2.84375 -8.9375 3.082031 -8.441406 3.5625 -8.109375 C 4.039062 -7.785156 4.769531 -7.484375 5.75 -7.203125 C 6.550781 -6.960938 7.222656 -6.707031 7.765625 -6.4375 C 8.316406 -6.164062 8.769531 -5.785156 9.125 -5.296875 C 9.476562 -4.804688 9.65625 -4.171875 9.65625 -3.390625 C 9.65625 -2.566406 9.453125 -1.878906 9.046875 -1.328125 C 8.648438 -0.785156 8.128906 -0.382812 7.484375 -0.125 C 6.835938 0.132812 6.148438 0.265625 5.421875 0.265625 Z M 5.421875 0.265625 "/></g></g></g><g fill="#191919" fill-opacity="1"><g transform="translate(115.839373, 47.923405)"><g><path d="M 6.75 0.265625 C 5.625 0.265625 4.628906 -0.00390625 3.765625 -0.546875 C 2.910156 -1.097656 2.25 -1.84375 1.78125 -2.78125 C 1.320312 -3.71875 1.09375 -4.765625 1.09375 -5.921875 C 1.09375 -7.066406 1.320312 -8.109375 1.78125 -9.046875 C 2.25 -9.992188 2.910156 -10.738281 3.765625 -11.28125 C 4.628906 -11.820312 5.625 -12.09375 6.75 -12.09375 C 7.863281 -12.09375 8.847656 -11.820312 9.703125 -11.28125 C 10.566406 -10.738281 11.234375 -9.992188 11.703125 -9.046875 C 12.171875 -8.109375 12.40625 -7.066406 12.40625 -5.921875 C 12.40625 -4.765625 12.171875 -3.71875 11.703125 -2.78125 C 11.234375 -1.84375 10.566406 -1.097656 9.703125 -0.546875 C 8.847656 -0.00390625 7.863281 0.265625 6.75 0.265625 Z M 6.75 -0.234375 C 7.820312 -0.234375 8.640625 -0.765625 9.203125 -1.828125 C 9.773438 -2.898438 10.0625 -4.265625 10.0625 -5.921875 C 10.0625 -7.578125 9.773438 -8.9375 9.203125 -10 C 8.640625 -11.0625 7.820312 -11.59375 6.75 -11.59375 C 5.675781 -11.59375 4.851562 -11.0625 4.28125 -10 C 3.71875 -8.9375 3.4375 -7.578125 3.4375 -5.921875 C 3.4375 -4.265625 3.71875 -2.898438 4.28125 -1.828125 C 4.851562 -0.765625 5.675781 -0.234375 6.75 -0.234375 Z M 6.75 -0.234375 "/></g></g></g><g fill="#191919" fill-opacity="1"><g transform="translate(128.853452, 47.923405)"><g/></g></g><g fill="#191919" fill-opacity="1"><g transform="translate(134.295665, 47.923405)"><g><path d="M 5.421875 0.265625 C 3.898438 0.265625 2.597656 -0.0390625 1.515625 -0.65625 L 1.515625 -3.953125 L 1.75 -3.953125 C 1.9375 -3.210938 2.242188 -2.566406 2.671875 -2.015625 C 3.097656 -1.472656 3.585938 -1.054688 4.140625 -0.765625 C 4.691406 -0.472656 5.253906 -0.328125 5.828125 -0.328125 C 6.535156 -0.328125 7.113281 -0.539062 7.5625 -0.96875 C 8.007812 -1.394531 8.234375 -1.925781 8.234375 -2.5625 C 8.234375 -3.25 7.984375 -3.769531 7.484375 -4.125 C 6.992188 -4.476562 6.257812 -4.789062 5.28125 -5.0625 C 4.476562 -5.28125 3.8125 -5.515625 3.28125 -5.765625 C 2.75 -6.023438 2.304688 -6.382812 1.953125 -6.84375 C 1.609375 -7.3125 1.4375 -7.910156 1.4375 -8.640625 C 1.4375 -9.679688 1.828125 -10.515625 2.609375 -11.140625 C 3.390625 -11.773438 4.390625 -12.09375 5.609375 -12.09375 C 6.710938 -12.09375 7.863281 -11.785156 9.0625 -11.171875 L 9.0625 -8.1875 L 8.828125 -8.1875 C 8.578125 -9.101562 8.101562 -9.882812 7.40625 -10.53125 C 6.71875 -11.175781 5.945312 -11.5 5.09375 -11.5 C 4.382812 -11.5 3.832031 -11.316406 3.4375 -10.953125 C 3.039062 -10.597656 2.84375 -10.144531 2.84375 -9.59375 C 2.84375 -8.9375 3.082031 -8.441406 3.5625 -8.109375 C 4.039062 -7.785156 4.769531 -7.484375 5.75 -7.203125 C 6.550781 -6.960938 7.222656 -6.707031 7.765625 -6.4375 C 8.316406 -6.164062 8.769531 -5.785156 9.125 -5.296875 C 9.476562 -4.804688 9.65625 -4.171875 9.65625 -3.390625 C 9.65625 -2.566406 9.453125 -1.878906 9.046875 -1.328125 C 8.648438 -0.785156 8.128906 -0.382812 7.484375 -0.125 C 6.835938 0.132812 6.148438 0.265625 5.421875 0.265625 Z M 5.421875 0.265625 "/></g></g></g><g fill="#191919" fill-opacity="1"><g transform="translate(144.706913, 47.923405)"><g><path d="M 11.484375 -3.765625 C 11.234375 -2.566406 10.664062 -1.59375 9.78125 -0.84375 C 8.90625 -0.101562 7.847656 0.265625 6.609375 0.265625 C 5.566406 0.265625 4.628906 0.03125 3.796875 -0.4375 C 2.972656 -0.90625 2.316406 -1.578125 1.828125 -2.453125 C 1.347656 -3.335938 1.109375 -4.382812 1.109375 -5.59375 C 1.109375 -6.882812 1.367188 -8.019531 1.890625 -9 C 2.410156 -9.988281 3.101562 -10.75 3.96875 -11.28125 C 4.84375 -11.820312 5.773438 -12.09375 6.765625 -12.09375 C 7.703125 -12.09375 8.507812 -11.882812 9.1875 -11.46875 C 9.863281 -11.0625 10.378906 -10.523438 10.734375 -9.859375 C 11.085938 -9.191406 11.265625 -8.460938 11.265625 -7.671875 L 2.9375 -7.671875 L 2.9375 -7.4375 C 2.9375 -6.132812 3.132812 -5.035156 3.53125 -4.140625 C 3.925781 -3.242188 4.460938 -2.566406 5.140625 -2.109375 C 5.828125 -1.648438 6.609375 -1.421875 7.484375 -1.421875 C 8.367188 -1.421875 9.140625 -1.628906 9.796875 -2.046875 C 10.460938 -2.460938 10.945312 -3.035156 11.25 -3.765625 Z M 6.015625 -11.390625 C 5.242188 -11.390625 4.570312 -11.117188 4 -10.578125 C 3.425781 -10.046875 3.085938 -9.242188 2.984375 -8.171875 L 9.015625 -8.171875 C 8.890625 -9.191406 8.570312 -9.984375 8.0625 -10.546875 C 7.5625 -11.109375 6.878906 -11.390625 6.015625 -11.390625 Z M 6.015625 -11.390625 "/></g></g></g><g fill="#191919" fill-opacity="1"><g transform="translate(156.585205, 47.923405)"><g/></g></g><g fill="#191919" fill-opacity="1"><g transform="translate(162.028209, 47.923405)"><g><path d="M 5.84375 0.3125 C 4.882812 0.3125 4.03125 0.0976562 3.28125 -0.328125 C 2.53125 -0.753906 1.945312 -1.359375 1.53125 -2.140625 C 1.113281 -2.921875 0.90625 -3.828125 0.90625 -4.859375 C 0.90625 -6.160156 1.191406 -7.367188 1.765625 -8.484375 C 2.335938 -9.609375 3.132812 -10.5 4.15625 -11.15625 C 5.1875 -11.8125 6.332031 -12.140625 7.59375 -12.140625 C 9.03125 -12.140625 10.234375 -11.84375 11.203125 -11.25 L 10.515625 -7.640625 L 10.28125 -7.640625 C 10.070312 -8.984375 9.726562 -9.96875 9.25 -10.59375 C 8.78125 -11.21875 8.175781 -11.53125 7.4375 -11.53125 C 6.894531 -11.53125 6.367188 -11.289062 5.859375 -10.8125 C 5.359375 -10.34375 4.945312 -9.671875 4.625 -8.796875 C 4.300781 -7.929688 4.140625 -6.945312 4.140625 -5.84375 C 4.140625 -4.53125 4.375 -3.453125 4.84375 -2.609375 C 5.320312 -1.765625 6.054688 -1.34375 7.046875 -1.34375 C 7.648438 -1.34375 8.203125 -1.492188 8.703125 -1.796875 C 9.210938 -2.109375 9.710938 -2.625 10.203125 -3.34375 L 10.53125 -3.34375 C 10.257812 -2.375 9.722656 -1.519531 8.921875 -0.78125 C 8.128906 -0.0507812 7.101562 0.3125 5.84375 0.3125 Z M 5.84375 0.3125 "/></g></g></g><g fill="#191919" fill-opacity="1"><g transform="translate(172.983689, 47.923405)"><g><path d="M 3.625 0.3125 C 2.832031 0.3125 2.222656 0.0859375 1.796875 -0.359375 C 1.367188 -0.816406 1.15625 -1.503906 1.15625 -2.421875 C 1.15625 -2.921875 1.210938 -3.445312 1.328125 -4 L 2.0625 -7.734375 C 2.15625 -8.253906 2.203125 -8.679688 2.203125 -9.015625 C 2.203125 -9.398438 2.148438 -9.71875 2.046875 -9.96875 C 1.941406 -10.21875 1.78125 -10.4375 1.5625 -10.625 L 1.59375 -10.75 L 5.96875 -12.140625 L 6.078125 -12.140625 L 4.359375 -3.34375 C 4.304688 -3.082031 4.28125 -2.859375 4.28125 -2.671875 C 4.28125 -1.992188 4.566406 -1.65625 5.140625 -1.65625 C 5.535156 -1.65625 5.976562 -1.9375 6.46875 -2.5 C 6.957031 -3.0625 7.429688 -3.820312 7.890625 -4.78125 C 8.359375 -5.738281 8.757812 -6.789062 9.09375 -7.9375 L 9.84375 -11.828125 L 13 -11.828125 L 11.125 -2.25 C 11.0625 -1.875 11.03125 -1.644531 11.03125 -1.5625 C 11.03125 -1.21875 11.164062 -1.046875 11.4375 -1.046875 C 11.925781 -1.046875 12.460938 -1.878906 13.046875 -3.546875 L 13.453125 -3.546875 C 13.085938 -2.109375 12.644531 -1.101562 12.125 -0.53125 C 11.613281 0.03125 11 0.3125 10.28125 0.3125 C 9.625 0.3125 9.097656 0.109375 8.703125 -0.296875 C 8.316406 -0.703125 8.125 -1.3125 8.125 -2.125 C 8.125 -2.550781 8.160156 -2.957031 8.234375 -3.34375 L 8.5 -4.65625 L 8.375 -4.65625 C 7.132812 -1.34375 5.550781 0.3125 3.625 0.3125 Z M 3.625 0.3125 "/></g></g></g><g fill="#191919" fill-opacity="1"><g transform="translate(186.565655, 47.923405)"><g><path d="M 3.453125 0.3125 C 2.796875 0.3125 2.269531 0.113281 1.875 -0.28125 C 1.476562 -0.675781 1.28125 -1.273438 1.28125 -2.078125 C 1.28125 -2.367188 1.316406 -2.75 1.390625 -3.21875 L 2.25 -7.640625 C 2.363281 -8.273438 2.421875 -8.726562 2.421875 -9 C 2.421875 -9.375 2.363281 -9.6875 2.25 -9.9375 C 2.132812 -10.195312 1.96875 -10.425781 1.75 -10.625 L 1.78125 -10.75 L 6.15625 -12.140625 L 6.265625 -12.140625 L 4.359375 -2.25 C 4.296875 -1.875 4.265625 -1.644531 4.265625 -1.5625 C 4.265625 -1.21875 4.394531 -1.046875 4.65625 -1.046875 C 5.144531 -1.046875 5.679688 -1.878906 6.265625 -3.546875 L 6.671875 -3.546875 C 6.304688 -2.097656 5.867188 -1.09375 5.359375 -0.53125 C 4.847656 0.03125 4.210938 0.3125 3.453125 0.3125 Z M 5 -13.546875 C 4.507812 -13.546875 4.101562 -13.707031 3.78125 -14.03125 C 3.46875 -14.351562 3.3125 -14.75 3.3125 -15.21875 C 3.3125 -15.769531 3.515625 -16.242188 3.921875 -16.640625 C 4.335938 -17.035156 4.820312 -17.234375 5.375 -17.234375 C 5.851562 -17.234375 6.25 -17.066406 6.5625 -16.734375 C 6.875 -16.398438 7.03125 -16 7.03125 -15.53125 C 7.03125 -14.976562 6.820312 -14.507812 6.40625 -14.125 C 6 -13.738281 5.53125 -13.546875 5 -13.546875 Z M 5 -13.546875 "/></g></g></g><g fill="#191919" fill-opacity="1"><g transform="translate(193.640552, 47.923405)"><g><path d="M 3.953125 0.3125 C 2.910156 0.3125 2.109375 -0.0664062 1.546875 -0.828125 C 0.984375 -1.597656 0.703125 -2.613281 0.703125 -3.875 C 0.703125 -5.3125 1.003906 -6.664062 1.609375 -7.9375 C 2.210938 -9.207031 3.035156 -10.222656 4.078125 -10.984375 C 5.117188 -11.753906 6.257812 -12.140625 7.5 -12.140625 C 8.34375 -12.140625 9.046875 -11.890625 9.609375 -11.390625 L 9.9375 -13.140625 C 10.03125 -13.660156 10.078125 -14.101562 10.078125 -14.46875 C 10.078125 -14.863281 10.023438 -15.191406 9.921875 -15.453125 C 9.828125 -15.710938 9.660156 -15.9375 9.421875 -16.125 L 9.4375 -16.234375 L 13.78125 -17.640625 L 13.890625 -17.640625 L 11.125 -2.25 C 11.0625 -1.875 11.03125 -1.644531 11.03125 -1.5625 C 11.03125 -1.21875 11.164062 -1.046875 11.4375 -1.046875 C 11.925781 -1.046875 12.460938 -1.878906 13.046875 -3.546875 L 13.453125 -3.546875 C 13.085938 -2.109375 12.648438 -1.101562 12.140625 -0.53125 C 11.640625 0.03125 11.035156 0.3125 10.328125 0.3125 C 9.671875 0.3125 9.15625 0.109375 8.78125 -0.296875 C 8.40625 -0.710938 8.21875 -1.304688 8.21875 -2.078125 C 8.21875 -2.335938 8.238281 -2.613281 8.28125 -2.90625 L 8.40625 -3.625 L 8.28125 -3.625 C 7.84375 -2.394531 7.257812 -1.429688 6.53125 -0.734375 C 5.800781 -0.0351562 4.941406 0.3125 3.953125 0.3125 Z M 5.328125 -1.421875 C 6.128906 -1.421875 6.875 -2.15625 7.5625 -3.625 C 8.257812 -5.101562 8.867188 -6.835938 9.390625 -8.828125 L 9.421875 -9.234375 C 9.421875 -9.992188 9.257812 -10.566406 8.9375 -10.953125 C 8.625 -11.335938 8.253906 -11.53125 7.828125 -11.53125 C 7.085938 -11.53125 6.414062 -11.109375 5.8125 -10.265625 C 5.207031 -9.421875 4.726562 -8.382812 4.375 -7.15625 C 4.03125 -5.9375 3.859375 -4.804688 3.859375 -3.765625 C 3.859375 -3.003906 3.976562 -2.421875 4.21875 -2.015625 C 4.46875 -1.617188 4.835938 -1.421875 5.328125 -1.421875 Z M 5.328125 -1.421875 "/></g></g></g><g fill="#191919" fill-opacity="1"><g transform="translate(207.24618, 47.923405)"><g><path d="M 3.953125 0.3125 C 2.910156 0.3125 2.109375 -0.0664062 1.546875 -0.828125 C 0.984375 -1.597656 0.703125 -2.613281 0.703125 -3.875 C 0.703125 -5.332031 1.003906 -6.691406 1.609375 -7.953125 C 2.210938 -9.210938 3.035156 -10.222656 4.078125 -10.984375 C 5.128906 -11.753906 6.3125 -12.140625 7.625 -12.140625 C 8.789062 -12.140625 9.742188 -11.800781 10.484375 -11.125 L 12.90625 -12.140625 L 13.015625 -12.140625 L 11.109375 -2.25 C 11.035156 -1.875 11 -1.644531 11 -1.5625 C 11 -1.21875 11.132812 -1.046875 11.40625 -1.046875 C 11.894531 -1.046875 12.429688 -1.878906 13.015625 -3.546875 L 13.421875 -3.546875 C 13.054688 -2.109375 12.617188 -1.101562 12.109375 -0.53125 C 11.609375 0.03125 11.003906 0.3125 10.296875 0.3125 C 9.648438 0.3125 9.132812 0.109375 8.75 -0.296875 C 8.375 -0.703125 8.1875 -1.28125 8.1875 -2.03125 C 8.1875 -2.320312 8.210938 -2.613281 8.265625 -2.90625 L 8.375 -3.625 L 8.265625 -3.625 C 7.316406 -1 5.878906 0.3125 3.953125 0.3125 Z M 5.328125 -1.421875 C 6.128906 -1.421875 6.867188 -2.15625 7.546875 -3.625 C 8.222656 -5.09375 8.832031 -6.828125 9.375 -8.828125 L 9.390625 -9.234375 C 9.390625 -9.992188 9.234375 -10.566406 8.921875 -10.953125 C 8.617188 -11.335938 8.253906 -11.53125 7.828125 -11.53125 C 7.085938 -11.53125 6.414062 -11.109375 5.8125 -10.265625 C 5.207031 -9.421875 4.726562 -8.382812 4.375 -7.15625 C 4.03125 -5.9375 3.859375 -4.804688 3.859375 -3.765625 C 3.859375 -3.003906 3.976562 -2.421875 4.21875 -2.015625 C 4.46875 -1.617188 4.835938 -1.421875 5.328125 -1.421875 Z M 5.328125 -1.421875 "/></g></g></g><g fill="#191919" fill-opacity="1"><g transform="translate(220.804484, 47.923405)"><g/></g></g><g fill="#191919" fill-opacity="1"><g transform="translate(226.246697, 47.923405)"><g><path d="M 16.671875 0.3125 C 16.035156 0.3125 15.523438 0.113281 15.140625 -0.28125 C 14.753906 -0.675781 14.5625 -1.257812 14.5625 -2.03125 C 14.5625 -2.457031 14.613281 -2.894531 14.71875 -3.34375 L 15.8125 -8.171875 C 15.894531 -8.566406 15.9375 -8.863281 15.9375 -9.0625 C 15.9375 -9.800781 15.59375 -10.171875 14.90625 -10.171875 C 14.3125 -10.171875 13.757812 -9.835938 13.25 -9.171875 C 12.75 -8.515625 12.359375 -7.753906 12.078125 -6.890625 L 10.71875 0 L 7.578125 0 L 9.1875 -8.21875 C 9.25 -8.476562 9.28125 -8.753906 9.28125 -9.046875 C 9.28125 -9.796875 8.957031 -10.171875 8.3125 -10.171875 C 7.769531 -10.171875 7.210938 -9.796875 6.640625 -9.046875 C 6.066406 -8.304688 5.566406 -7.25 5.140625 -5.875 L 4 0 L 0.859375 0 L 2.3125 -7.640625 C 2.425781 -8.179688 2.484375 -8.648438 2.484375 -9.046875 C 2.484375 -9.421875 2.425781 -9.726562 2.3125 -9.96875 C 2.207031 -10.21875 2.050781 -10.4375 1.84375 -10.625 L 1.875 -10.75 L 6.21875 -12.140625 L 6.34375 -12.140625 L 5.703125 -8.8125 L 5.828125 -8.8125 C 6.378906 -10.007812 7 -10.863281 7.6875 -11.375 C 8.375 -11.882812 9.164062 -12.140625 10.0625 -12.140625 C 10.894531 -12.140625 11.507812 -11.875 11.90625 -11.34375 C 12.3125 -10.820312 12.492188 -10.101562 12.453125 -9.1875 L 12.5625 -9.1875 C 13.007812 -10.082031 13.554688 -10.796875 14.203125 -11.328125 C 14.847656 -11.867188 15.65625 -12.140625 16.625 -12.140625 C 17.363281 -12.140625 17.957031 -11.910156 18.40625 -11.453125 C 18.851562 -10.992188 19.078125 -10.304688 19.078125 -9.390625 C 19.078125 -8.921875 19.003906 -8.363281 18.859375 -7.71875 L 17.609375 -2.078125 C 17.566406 -1.847656 17.546875 -1.660156 17.546875 -1.515625 C 17.546875 -1.203125 17.671875 -1.046875 17.921875 -1.046875 C 18.421875 -1.046875 18.960938 -1.878906 19.546875 -3.546875 L 19.953125 -3.546875 C 19.578125 -2.097656 19.128906 -1.09375 18.609375 -0.53125 C 18.097656 0.03125 17.453125 0.3125 16.671875 0.3125 Z M 16.671875 0.3125 "/></g></g></g><g fill="#191919" fill-opacity="1"><g transform="translate(246.667008, 47.923405)"><g><path d="M 7.046875 -1.34375 C 7.648438 -1.34375 8.203125 -1.492188 8.703125 -1.796875 C 9.210938 -2.109375 9.710938 -2.625 10.203125 -3.34375 L 10.53125 -3.34375 C 10.257812 -2.375 9.722656 -1.519531 8.921875 -0.78125 C 8.128906 -0.0507812 7.101562 0.3125 5.84375 0.3125 C 4.863281 0.3125 4.003906 0.0976562 3.265625 -0.328125 C 2.523438 -0.753906 1.945312 -1.351562 1.53125 -2.125 C 1.113281 -2.90625 0.90625 -3.816406 0.90625 -4.859375 C 0.90625 -6.179688 1.195312 -7.394531 1.78125 -8.5 C 2.363281 -9.613281 3.164062 -10.5 4.1875 -11.15625 C 5.21875 -11.8125 6.367188 -12.140625 7.640625 -12.140625 C 8.890625 -12.140625 9.8125 -11.90625 10.40625 -11.4375 C 11.007812 -10.976562 11.3125 -10.394531 11.3125 -9.6875 C 11.3125 -8.9375 11.019531 -8.273438 10.4375 -7.703125 C 9.851562 -7.128906 8.976562 -6.691406 7.8125 -6.390625 C 6.820312 -6.148438 5.597656 -6.007812 4.140625 -5.96875 L 4.140625 -5.875 C 4.140625 -4.5625 4.375 -3.476562 4.84375 -2.625 C 5.320312 -1.769531 6.054688 -1.34375 7.046875 -1.34375 Z M 7.203125 -11.53125 C 6.660156 -11.53125 6.164062 -11.300781 5.71875 -10.84375 C 5.28125 -10.382812 4.925781 -9.773438 4.65625 -9.015625 C 4.394531 -8.253906 4.234375 -7.425781 4.171875 -6.53125 C 5.242188 -6.582031 6.085938 -6.738281 6.703125 -7 C 7.265625 -7.257812 7.6875 -7.648438 7.96875 -8.171875 C 8.257812 -8.691406 8.40625 -9.273438 8.40625 -9.921875 C 8.40625 -10.992188 8.003906 -11.53125 7.203125 -11.53125 Z M 7.203125 -11.53125 "/></g></g></g><g fill="#191919" fill-opacity="1"><g transform="translate(257.859107, 47.923405)"><g><path d="M 3.453125 0.3125 C 2.796875 0.3125 2.269531 0.109375 1.875 -0.296875 C 1.476562 -0.703125 1.28125 -1.3125 1.28125 -2.125 C 1.28125 -2.414062 1.316406 -2.78125 1.390625 -3.21875 L 3.171875 -13.140625 C 3.265625 -13.660156 3.3125 -14.09375 3.3125 -14.4375 C 3.3125 -14.832031 3.253906 -15.160156 3.140625 -15.421875 C 3.035156 -15.679688 2.875 -15.914062 2.65625 -16.125 L 2.671875 -16.234375 L 7 -17.640625 L 7.125 -17.640625 L 4.359375 -2.25 C 4.304688 -1.96875 4.28125 -1.75 4.28125 -1.59375 C 4.28125 -1.226562 4.40625 -1.046875 4.65625 -1.046875 C 4.914062 -1.046875 5.175781 -1.253906 5.4375 -1.671875 C 5.707031 -2.085938 5.992188 -2.710938 6.296875 -3.546875 L 6.703125 -3.546875 C 6.335938 -2.109375 5.894531 -1.101562 5.375 -0.53125 C 4.851562 0.03125 4.210938 0.3125 3.453125 0.3125 Z M 3.453125 0.3125 "/></g></g></g><g fill="#191919" fill-opacity="1"><g transform="translate(264.981327, 47.923405)"><g><path d="M 10.25 0.3125 C 9.613281 0.3125 9.101562 0.113281 8.71875 -0.28125 C 8.332031 -0.675781 8.140625 -1.257812 8.140625 -2.03125 C 8.140625 -2.445312 8.195312 -2.882812 8.3125 -3.34375 L 9.515625 -8.515625 C 9.566406 -8.753906 9.59375 -8.960938 9.59375 -9.140625 C 9.59375 -9.484375 9.507812 -9.738281 9.34375 -9.90625 C 9.175781 -10.082031 8.945312 -10.171875 8.65625 -10.171875 C 8.238281 -10.171875 7.785156 -9.929688 7.296875 -9.453125 C 6.804688 -8.972656 6.34375 -8.316406 5.90625 -7.484375 C 5.46875 -6.660156 5.117188 -5.757812 4.859375 -4.78125 L 4 0 L 0.859375 0 L 3.203125 -13.140625 C 3.296875 -13.660156 3.34375 -14.101562 3.34375 -14.46875 C 3.34375 -14.863281 3.289062 -15.191406 3.1875 -15.453125 C 3.082031 -15.710938 2.910156 -15.9375 2.671875 -16.125 L 2.703125 -16.234375 L 7.03125 -17.640625 L 7.15625 -17.640625 L 5.390625 -7.78125 L 5.515625 -7.78125 C 6.035156 -9.15625 6.695312 -10.222656 7.5 -10.984375 C 8.3125 -11.753906 9.210938 -12.140625 10.203125 -12.140625 C 10.960938 -12.140625 11.566406 -11.914062 12.015625 -11.46875 C 12.460938 -11.019531 12.6875 -10.328125 12.6875 -9.390625 C 12.6875 -8.890625 12.613281 -8.316406 12.46875 -7.671875 L 11.203125 -2.078125 C 11.148438 -1.847656 11.125 -1.660156 11.125 -1.515625 C 11.125 -1.203125 11.25 -1.046875 11.5 -1.046875 C 12.007812 -1.046875 12.554688 -1.878906 13.140625 -3.546875 L 13.546875 -3.546875 C 13.160156 -2.097656 12.710938 -1.09375 12.203125 -0.53125 C 11.691406 0.03125 11.039062 0.3125 10.25 0.3125 Z M 10.25 0.3125 "/></g></g></g><g fill="#191919" fill-opacity="1"><g transform="translate(278.989209, 47.923405)"><g><path d="M 5.875 0.3125 C 4.832031 0.3125 3.925781 0.09375 3.15625 -0.34375 C 2.394531 -0.78125 1.804688 -1.378906 1.390625 -2.140625 C 0.984375 -2.910156 0.78125 -3.785156 0.78125 -4.765625 C 0.78125 -6.128906 1.0625 -7.375 1.625 -8.5 C 2.195312 -9.632812 2.972656 -10.523438 3.953125 -11.171875 C 4.929688 -11.816406 6.019531 -12.140625 7.21875 -12.140625 C 8.257812 -12.140625 9.164062 -11.921875 9.9375 -11.484375 C 10.71875 -11.054688 11.3125 -10.457031 11.71875 -9.6875 C 12.125 -8.925781 12.328125 -8.054688 12.328125 -7.078125 C 12.328125 -5.703125 12.039062 -4.453125 11.46875 -3.328125 C 10.90625 -2.203125 10.128906 -1.3125 9.140625 -0.65625 C 8.160156 -0.0078125 7.070312 0.3125 5.875 0.3125 Z M 5.84375 -0.234375 C 6.476562 -0.234375 7.035156 -0.640625 7.515625 -1.453125 C 7.992188 -2.265625 8.367188 -3.285156 8.640625 -4.515625 C 8.910156 -5.753906 9.046875 -6.957031 9.046875 -8.125 C 9.046875 -10.4375 8.445312 -11.59375 7.25 -11.59375 C 6.613281 -11.59375 6.054688 -11.1875 5.578125 -10.375 C 5.097656 -9.5625 4.726562 -8.539062 4.46875 -7.3125 C 4.207031 -6.082031 4.078125 -4.882812 4.078125 -3.71875 C 4.078125 -1.394531 4.664062 -0.234375 5.84375 -0.234375 Z M 5.84375 -0.234375 "/></g></g></g><g fill="#191919" fill-opacity="1"><g transform="translate(291.624696, 47.923405)"><g><path d="M 2.3125 -7.640625 C 2.425781 -8.179688 2.484375 -8.648438 2.484375 -9.046875 C 2.484375 -9.421875 2.425781 -9.726562 2.3125 -9.96875 C 2.207031 -10.21875 2.050781 -10.4375 1.84375 -10.625 L 1.875 -10.75 L 6.21875 -12.140625 L 6.34375 -12.140625 L 5.515625 -7.78125 L 5.640625 -7.78125 C 6.140625 -9.207031 6.8125 -10.289062 7.65625 -11.03125 C 8.5 -11.769531 9.488281 -12.140625 10.625 -12.140625 L 10.984375 -12.140625 L 10.421875 -9.109375 L 9.28125 -9.109375 C 8.207031 -9.109375 7.316406 -8.773438 6.609375 -8.109375 C 5.898438 -7.453125 5.347656 -6.390625 4.953125 -4.921875 L 4 0 L 0.859375 0 Z M 2.3125 -7.640625 "/></g></g></g><g fill="#191919" fill-opacity="1"><g transform="translate(301.39707, 47.923405)"><g><path d="M 3.90625 -16.625 C 4.425781 -16.789062 4.9375 -16.875 5.4375 -16.875 C 5.851562 -16.875 6.265625 -16.820312 6.671875 -16.71875 C 7.085938 -16.613281 7.421875 -16.476562 7.671875 -16.3125 L 3.78125 -4.5625 L 3.203125 -4.5625 Z M 2.796875 0.234375 C 2.316406 0.234375 1.929688 0.0859375 1.640625 -0.203125 C 1.347656 -0.492188 1.203125 -0.851562 1.203125 -1.28125 C 1.203125 -1.8125 1.382812 -2.265625 1.75 -2.640625 C 2.125 -3.015625 2.570312 -3.203125 3.09375 -3.203125 C 3.570312 -3.203125 3.953125 -3.050781 4.234375 -2.75 C 4.515625 -2.457031 4.65625 -2.09375 4.65625 -1.65625 C 4.65625 -1.132812 4.46875 -0.6875 4.09375 -0.3125 C 3.726562 0.0507812 3.296875 0.234375 2.796875 0.234375 Z M 2.796875 0.234375 "/></g></g></g></g></g></svg>