<?xml version="1.0" encoding="utf-8"?>
<svg height="100" preserveAspectRatio="xMidYMid meet" version="1.0" viewBox="0 0 308.25 74.999997" width="411" xmlns="http://www.w3.org/2000/svg" xmlns:xlink="http://www.w3.org/1999/xlink" zoomAndPan="magnify">
 <defs>
  <g/>
  <clipPath id="d25a3689b9">
   <path clip-rule="nonzero" d="M 0 0.0898438 L 307.5 0.0898438 L 307.5 74.90625 L 0 74.90625 Z M 0 0.0898438 "/>
  </clipPath>
  <clipPath id="d778feb3da">
   <path clip-rule="nonzero" d="M 15.222656 13.8125 L 35.164062 13.8125 L 35.164062 16.246094 L 15.222656 16.246094 Z M 15.222656 13.8125 "/>
  </clipPath>
  <clipPath id="7f5ddf130d">
   <path clip-rule="nonzero" d="M 26 0.0898438 L 29 0.0898438 L 29 3 L 26 3 Z M 26 0.0898438 "/>
  </clipPath>
  <clipPath id="44410fcafd">
   <path clip-rule="nonzero" d="M 9.101562 72.160156 L 11.386719 72.160156 L 11.386719 74.160156 L 9.101562 74.160156 Z M 9.101562 72.160156 "/>
  </clipPath>
 </defs>
 <g clip-path="url(#d25a3689b9)"/>
 <path d="M 27.605469 22.515625 C 27.515625 22.515625 27.425781 22.527344 27.339844 22.550781 C 25.992188 22.933594 24.621094 23.195312 23.234375 23.195312 L 22.292969 23.195312 C 20.441406 23.195312 18.589844 22.890625 16.855469 22.15625 C 16.671875 22.078125 16.46875 22.042969 16.253906 22.054688 C 15.535156 22.105469 14.949219 22.761719 14.902344 23.570312 C 14.847656 24.519531 15.515625 25.308594 16.347656 25.308594 C 16.53125 25.308594 16.707031 25.269531 16.871094 25.195312 C 18.523438 24.472656 20.300781 24.164062 22.074219 24.164062 L 23.167969 24.164062 C 24.5625 24.164062 25.960938 24.339844 27.292969 24.796875 C 27.390625 24.828125 27.492188 24.84375 27.59375 24.84375 C 28.1875 24.84375 28.664062 24.289062 28.628906 23.613281 C 28.601562 23.007812 28.144531 22.519531 27.605469 22.515625 " fill="currentColor" fill-opacity="1" fill-rule="nonzero"/>
 <g clip-path="url(#d778feb3da)">
  <path d="M 34.140625 14.019531 C 33.988281 14.011719 33.84375 14.027344 33.707031 14.066406 C 32.066406 14.542969 30.332031 14.726562 28.605469 14.726562 L 22.769531 14.726562 C 20.8125 14.726562 18.851562 14.5 17.003906 13.921875 C 16.867188 13.882812 16.722656 13.859375 16.574219 13.859375 C 15.894531 13.863281 15.320312 14.351562 15.28125 14.960938 C 15.242188 15.632812 15.839844 16.191406 16.578125 16.191406 C 16.710938 16.191406 16.835938 16.171875 16.953125 16.140625 C 18.625 15.683594 20.371094 15.507812 22.117188 15.507812 L 29.832031 15.507812 C 31.167969 15.507812 32.484375 15.710938 33.78125 16 C 33.867188 16.019531 33.960938 16.03125 34.054688 16.03125 C 34.714844 16.03125 35.242188 15.515625 35.164062 14.910156 C 35.105469 14.433594 34.671875 14.058594 34.140625 14.019531 " fill="currentColor" fill-opacity="1" fill-rule="nonzero"/>
 </g>
 <path d="M 29.777344 8.871094 C 29.71875 8.863281 29.65625 8.871094 29.601562 8.890625 C 29.125 9.050781 28.636719 9.164062 28.144531 9.164062 L 23.347656 9.164062 C 22.578125 9.164062 21.8125 8.980469 21.09375 8.621094 C 20.980469 8.5625 20.851562 8.542969 20.71875 8.5625 C 20.390625 8.621094 20.125 8.960938 20.089844 9.375 C 20.039062 9.933594 20.386719 10.410156 20.824219 10.410156 C 20.917969 10.410156 21.007812 10.386719 21.09375 10.34375 C 21.765625 10.007812 22.46875 9.796875 23.191406 9.796875 L 27.984375 9.796875 C 28.523438 9.796875 29.066406 9.863281 29.582031 10.066406 C 29.628906 10.085938 29.675781 10.09375 29.726562 10.09375 C 30.015625 10.09375 30.242188 9.78125 30.210938 9.410156 C 30.1875 9.128906 30.003906 8.902344 29.777344 8.871094 " fill="currentColor" fill-opacity="1" fill-rule="nonzero"/>
 <path d="M 20.808594 41.761719 C 20.304688 41.71875 19.835938 41.863281 19.464844 42.132812 C 18.488281 42.84375 17.332031 43.257812 16.125 43.257812 L 12.089844 43.257812 C 11.132812 43.257812 10.203125 42.96875 9.378906 42.484375 C 9.140625 42.347656 8.863281 42.273438 8.566406 42.289062 C 7.835938 42.324219 7.234375 42.917969 7.1875 43.648438 C 7.136719 44.496094 7.808594 45.199219 8.640625 45.199219 C 8.90625 45.199219 9.152344 45.128906 9.367188 45.003906 C 10.214844 44.519531 11.15625 44.226562 12.132812 44.226562 L 16.125 44.226562 C 17.332031 44.226562 18.488281 44.640625 19.464844 45.351562 C 19.792969 45.589844 20.195312 45.730469 20.632812 45.730469 C 21.777344 45.730469 22.695312 44.761719 22.613281 43.601562 C 22.546875 42.632812 21.773438 41.847656 20.808594 41.761719 " fill="currentColor" fill-opacity="1" fill-rule="nonzero"/>
 <path d="M 21.585938 51.820312 C 21.136719 51.796875 20.71875 51.898438 20.371094 52.078125 C 19.121094 52.730469 17.652344 53.039062 16.175781 53.039062 L 5.464844 53.039062 C 4.339844 53.039062 3.210938 52.855469 2.203125 52.441406 C 1.960938 52.339844 1.683594 52.296875 1.390625 52.324219 C 0.722656 52.386719 0.183594 52.832031 0.109375 53.386719 C 0.0117188 54.113281 0.699219 54.730469 1.558594 54.730469 C 1.765625 54.730469 1.964844 54.695312 2.144531 54.628906 C 3.191406 54.246094 4.3125 54.007812 5.457031 54.007812 L 16.148438 54.007812 C 17.636719 54.007812 19.113281 54.316406 20.375 54.972656 C 20.691406 55.136719 21.066406 55.230469 21.464844 55.230469 C 22.648438 55.230469 23.597656 54.402344 23.519531 53.410156 C 23.453125 52.558594 22.613281 51.867188 21.585938 51.820312 " fill="currentColor" fill-opacity="1" fill-rule="nonzero"/>
 <path d="M 17.464844 61.128906 C 17.160156 61.109375 16.875 61.195312 16.640625 61.351562 C 16 61.78125 15.230469 61.980469 14.460938 61.980469 L 8.527344 61.980469 C 7.867188 61.980469 7.207031 61.835938 6.628906 61.511719 C 6.4375 61.40625 6.214844 61.359375 5.976562 61.382812 C 5.476562 61.441406 5.074219 61.84375 5.019531 62.34375 C 4.945312 63 5.457031 63.558594 6.101562 63.558594 C 6.292969 63.558594 6.476562 63.507812 6.632812 63.421875 C 7.210938 63.097656 7.871094 62.953125 8.53125 62.953125 L 14.503906 62.953125 C 15.277344 62.953125 16.019531 63.195312 16.671875 63.605469 C 16.878906 63.734375 17.125 63.808594 17.382812 63.808594 C 18.152344 63.808594 18.773438 63.160156 18.722656 62.382812 C 18.679688 61.710938 18.136719 61.167969 17.464844 61.128906 " fill="currentColor" fill-opacity="1" fill-rule="nonzero"/>
 <path d="M 25.777344 5.011719 C 25.777344 5.6875 25.226562 6.238281 24.546875 6.238281 C 23.867188 6.238281 23.316406 5.6875 23.316406 5.011719 C 23.316406 4.332031 23.867188 3.78125 24.546875 3.78125 C 25.226562 3.78125 25.777344 4.332031 25.777344 5.011719 " fill="currentColor" fill-opacity="1" fill-rule="nonzero"/>
 <g clip-path="url(#7f5ddf130d)">
  <path d="M 28.113281 1.097656 C 28.113281 1.652344 27.660156 2.101562 27.105469 2.101562 C 26.550781 2.101562 26.101562 1.652344 26.101562 1.097656 C 26.101562 0.542969 26.550781 0.0898438 27.105469 0.0898438 C 27.660156 0.0898438 28.113281 0.542969 28.113281 1.097656 " fill="currentColor" fill-opacity="1" fill-rule="nonzero"/>
 </g>
 <path d="M 11.847656 19.804688 C 10.527344 28.71875 20.246094 31.992188 24.664062 38.089844 C 27.003906 41.328125 28.089844 45.585938 27.164062 49.515625 C 26.820312 46.101562 25.671875 42.78125 23.582031 40.039062 C 19.179688 34.253906 7.230469 28.792969 11.847656 19.804688 " fill="currentColor" fill-opacity="1" fill-rule="nonzero"/>
 <path d="M 15.28125 68.570312 C 15.28125 69.4375 14.578125 70.140625 13.710938 70.140625 C 12.839844 70.140625 12.136719 69.4375 12.136719 68.570312 C 12.136719 67.703125 12.839844 67 13.710938 67 C 14.578125 67 15.28125 67.703125 15.28125 68.570312 " fill="currentColor" fill-opacity="1" fill-rule="nonzero"/>
 <g clip-path="url(#44410fcafd)">
  <path d="M 11.367188 73.332031 C 11.367188 73.953125 10.863281 74.457031 10.242188 74.457031 C 9.621094 74.457031 9.117188 73.953125 9.117188 73.332031 C 9.117188 72.710938 9.621094 72.207031 10.242188 72.207031 C 10.863281 72.207031 11.367188 72.710938 11.367188 73.332031 " fill="currentColor" fill-opacity="1" fill-rule="nonzero"/>
 </g>
 <g fill="currentColor" fill-opacity="1">
  <g transform="translate(55.561161, 49.817417)">
   <g>
    <path d="M 2.515625 -0.15625 C 2.773438 -0.507812 2.992188 -0.953125 3.171875 -1.484375 C 3.347656 -2.023438 3.4375 -2.578125 3.4375 -3.140625 L 3.4375 -17.796875 C 3.4375 -18.359375 3.347656 -18.90625 3.171875 -19.4375 C 2.992188 -19.976562 2.773438 -20.429688 2.515625 -20.796875 L 2.515625 -20.9375 L 9.640625 -20.9375 C 11.910156 -20.9375 13.796875 -20.460938 15.296875 -19.515625 C 16.804688 -18.578125 17.5625 -17.007812 17.5625 -14.8125 C 17.5625 -13.394531 17.21875 -12.210938 16.53125 -11.265625 C 15.84375 -10.316406 14.9375 -9.625 13.8125 -9.1875 C 12.695312 -8.75 11.492188 -8.53125 10.203125 -8.53125 C 9.109375 -8.53125 8.101562 -8.71875 7.1875 -9.09375 L 7.1875 -9.453125 C 7.914062 -9.273438 8.691406 -9.1875 9.515625 -9.1875 C 11.128906 -9.1875 12.375 -9.710938 13.25 -10.765625 C 14.132812 -11.828125 14.578125 -13.175781 14.578125 -14.8125 C 14.578125 -15.789062 14.378906 -16.695312 13.984375 -17.53125 C 13.597656 -18.375 13.023438 -19.046875 12.265625 -19.546875 C 11.503906 -20.054688 10.578125 -20.3125 9.484375 -20.3125 C 8.828125 -20.3125 8.257812 -20.273438 7.78125 -20.203125 C 7.300781 -20.140625 6.800781 -20.03125 6.28125 -19.875 L 6.28125 -3.140625 C 6.28125 -2.578125 6.367188 -2.023438 6.546875 -1.484375 C 6.734375 -0.953125 6.957031 -0.507812 7.21875 -0.15625 L 7.21875 0 L 2.515625 0 Z M 2.515625 -0.15625 "/>
   </g>
  </g>
 </g>
 <g fill="currentColor" fill-opacity="1">
  <g transform="translate(73.427682, 49.817417)">
   <g>
    <path d="M 2.25 -0.15625 C 2.757812 -0.875 3.015625 -1.800781 3.015625 -2.9375 L 3.015625 -11.046875 C 3.015625 -11.703125 2.9375 -12.25 2.78125 -12.6875 C 2.625 -13.125 2.382812 -13.492188 2.0625 -13.796875 L 2.0625 -13.9375 L 5.53125 -15.296875 L 5.6875 -15.296875 L 5.6875 -11.8125 L 5.828125 -11.8125 C 6.191406 -12.957031 6.773438 -13.820312 7.578125 -14.40625 C 8.390625 -15 9.515625 -15.296875 10.953125 -15.296875 L 10.953125 -12.71875 L 9.484375 -12.71875 C 6.953125 -12.71875 5.6875 -11.585938 5.6875 -9.328125 L 5.6875 -2.9375 C 5.6875 -1.800781 5.945312 -0.875 6.46875 -0.15625 L 6.46875 0 L 2.25 0 Z M 2.25 -0.15625 "/>
   </g>
  </g>
 </g>
 <g fill="currentColor" fill-opacity="1">
  <g transform="translate(84.261319, 49.817417)">
   <g>
    <path d="M 8.53125 0.328125 C 7.113281 0.328125 5.859375 -0.015625 4.765625 -0.703125 C 3.679688 -1.390625 2.84375 -2.328125 2.25 -3.515625 C 1.664062 -4.703125 1.375 -6.023438 1.375 -7.484375 C 1.375 -8.941406 1.664062 -10.257812 2.25 -11.4375 C 2.84375 -12.625 3.679688 -13.5625 4.765625 -14.25 C 5.859375 -14.945312 7.113281 -15.296875 8.53125 -15.296875 C 9.945312 -15.296875 11.195312 -14.945312 12.28125 -14.25 C 13.363281 -13.5625 14.195312 -12.625 14.78125 -11.4375 C 15.375 -10.257812 15.671875 -8.941406 15.671875 -7.484375 C 15.671875 -6.023438 15.375 -4.703125 14.78125 -3.515625 C 14.195312 -2.328125 13.363281 -1.390625 12.28125 -0.703125 C 11.195312 -0.015625 9.945312 0.328125 8.53125 0.328125 Z M 8.53125 -0.296875 C 9.882812 -0.296875 10.921875 -0.96875 11.640625 -2.3125 C 12.359375 -3.664062 12.71875 -5.390625 12.71875 -7.484375 C 12.71875 -9.578125 12.359375 -11.296875 11.640625 -12.640625 C 10.921875 -13.984375 9.882812 -14.65625 8.53125 -14.65625 C 7.175781 -14.65625 6.140625 -13.984375 5.421875 -12.640625 C 4.703125 -11.296875 4.34375 -9.578125 4.34375 -7.484375 C 4.34375 -5.390625 4.703125 -3.664062 5.421875 -2.3125 C 6.140625 -0.96875 7.175781 -0.296875 8.53125 -0.296875 Z M 8.53125 -0.296875 "/>
   </g>
  </g>
 </g>
 <g fill="currentColor" fill-opacity="1">
  <g transform="translate(100.721259, 49.817417)">
   <g>
    <path d="M 2.25 -0.15625 C 2.757812 -0.875 3.015625 -1.800781 3.015625 -2.9375 L 3.015625 -11.046875 C 3.015625 -11.703125 2.9375 -12.25 2.78125 -12.6875 C 2.625 -13.125 2.382812 -13.492188 2.0625 -13.796875 L 2.0625 -13.9375 L 5.53125 -15.296875 L 5.6875 -15.296875 L 5.6875 -12.265625 L 5.828125 -12.265625 C 6.234375 -13.160156 6.851562 -13.890625 7.6875 -14.453125 C 8.53125 -15.015625 9.507812 -15.296875 10.625 -15.296875 C 12.132812 -15.296875 13.335938 -14.800781 14.234375 -13.8125 C 15.140625 -12.820312 15.59375 -11.550781 15.59375 -10 L 15.59375 -2.9375 C 15.59375 -1.800781 15.851562 -0.875 16.375 -0.15625 L 16.375 0 L 12.140625 0 L 12.140625 -0.15625 C 12.660156 -0.875 12.921875 -1.800781 12.921875 -2.9375 L 12.921875 -9.96875 C 12.921875 -11 12.601562 -11.851562 11.96875 -12.53125 C 11.332031 -13.207031 10.492188 -13.546875 9.453125 -13.546875 C 8.421875 -13.546875 7.535156 -13.210938 6.796875 -12.546875 C 6.054688 -11.878906 5.6875 -11.019531 5.6875 -9.96875 L 5.6875 -2.9375 C 5.6875 -1.800781 5.945312 -0.875 6.46875 -0.15625 L 6.46875 0 L 2.25 0 Z M 2.25 -0.15625 "/>
   </g>
  </g>
 </g>
 <g fill="currentColor" fill-opacity="1">
  <g transform="translate(118.438146, 49.817417)">
   <g>
    <path d="M 6.578125 0.328125 C 5.503906 0.328125 4.585938 -0.0195312 3.828125 -0.71875 C 3.066406 -1.414062 2.6875 -2.394531 2.6875 -3.65625 L 2.6875 -12.328125 C 2.6875 -13.285156 2.238281 -13.941406 1.34375 -14.296875 L 1.34375 -14.453125 C 2.695312 -15.148438 3.984375 -16.265625 5.203125 -17.796875 L 5.359375 -17.796875 L 5.359375 -14.953125 L 9.6875 -14.953125 L 9.359375 -14 L 5.359375 -14 L 5.359375 -3.65625 C 5.359375 -2.832031 5.585938 -2.191406 6.046875 -1.734375 C 6.503906 -1.273438 7.082031 -1.046875 7.78125 -1.046875 C 8.238281 -1.046875 8.628906 -1.117188 8.953125 -1.265625 C 9.285156 -1.421875 9.53125 -1.597656 9.6875 -1.796875 L 10 -1.640625 C 9.675781 -1.046875 9.21875 -0.566406 8.625 -0.203125 C 8.039062 0.148438 7.359375 0.328125 6.578125 0.328125 Z M 6.578125 0.328125 "/>
   </g>
  </g>
 </g>
 <g fill="currentColor" fill-opacity="1">
  <g transform="translate(128.164481, 49.817417)">
   <g>
    <path d="M 8.53125 0.328125 C 7.113281 0.328125 5.859375 -0.015625 4.765625 -0.703125 C 3.679688 -1.390625 2.84375 -2.328125 2.25 -3.515625 C 1.664062 -4.703125 1.375 -6.023438 1.375 -7.484375 C 1.375 -8.941406 1.664062 -10.257812 2.25 -11.4375 C 2.84375 -12.625 3.679688 -13.5625 4.765625 -14.25 C 5.859375 -14.945312 7.113281 -15.296875 8.53125 -15.296875 C 9.945312 -15.296875 11.195312 -14.945312 12.28125 -14.25 C 13.363281 -13.5625 14.195312 -12.625 14.78125 -11.4375 C 15.375 -10.257812 15.671875 -8.941406 15.671875 -7.484375 C 15.671875 -6.023438 15.375 -4.703125 14.78125 -3.515625 C 14.195312 -2.328125 13.363281 -1.390625 12.28125 -0.703125 C 11.195312 -0.015625 9.945312 0.328125 8.53125 0.328125 Z M 8.53125 -0.296875 C 9.882812 -0.296875 10.921875 -0.96875 11.640625 -2.3125 C 12.359375 -3.664062 12.71875 -5.390625 12.71875 -7.484375 C 12.71875 -9.578125 12.359375 -11.296875 11.640625 -12.640625 C 10.921875 -13.984375 9.882812 -14.65625 8.53125 -14.65625 C 7.175781 -14.65625 6.140625 -13.984375 5.421875 -12.640625 C 4.703125 -11.296875 4.34375 -9.578125 4.34375 -7.484375 C 4.34375 -5.390625 4.703125 -3.664062 5.421875 -2.3125 C 6.140625 -0.96875 7.175781 -0.296875 8.53125 -0.296875 Z M 8.53125 -0.296875 "/>
   </g>
  </g>
 </g>
 <g fill="currentColor" fill-opacity="1">
  <g transform="translate(144.62442, 49.817417)">
   <g>
    <path d="M 2.515625 -0.15625 C 2.773438 -0.507812 2.992188 -0.953125 3.171875 -1.484375 C 3.347656 -2.023438 3.4375 -2.578125 3.4375 -3.140625 L 3.4375 -17.796875 C 3.4375 -18.359375 3.347656 -18.90625 3.171875 -19.4375 C 2.992188 -19.976562 2.773438 -20.429688 2.515625 -20.796875 L 2.515625 -20.9375 L 9.640625 -20.9375 C 11.910156 -20.9375 13.796875 -20.460938 15.296875 -19.515625 C 16.804688 -18.578125 17.5625 -17.007812 17.5625 -14.8125 C 17.5625 -13.394531 17.21875 -12.210938 16.53125 -11.265625 C 15.84375 -10.316406 14.9375 -9.625 13.8125 -9.1875 C 12.695312 -8.75 11.492188 -8.53125 10.203125 -8.53125 C 9.109375 -8.53125 8.101562 -8.71875 7.1875 -9.09375 L 7.1875 -9.453125 C 7.914062 -9.273438 8.691406 -9.1875 9.515625 -9.1875 C 11.128906 -9.1875 12.375 -9.710938 13.25 -10.765625 C 14.132812 -11.828125 14.578125 -13.175781 14.578125 -14.8125 C 14.578125 -15.789062 14.378906 -16.695312 13.984375 -17.53125 C 13.597656 -18.375 13.023438 -19.046875 12.265625 -19.546875 C 11.503906 -20.054688 10.578125 -20.3125 9.484375 -20.3125 C 8.828125 -20.3125 8.257812 -20.273438 7.78125 -20.203125 C 7.300781 -20.140625 6.800781 -20.03125 6.28125 -19.875 L 6.28125 -3.140625 C 6.28125 -2.578125 6.367188 -2.023438 6.546875 -1.484375 C 6.734375 -0.953125 6.957031 -0.507812 7.21875 -0.15625 L 7.21875 0 L 2.515625 0 Z M 2.515625 -0.15625 "/>
   </g>
  </g>
 </g>
 <g fill="currentColor" fill-opacity="1">
  <g transform="translate(162.490941, 49.817417)">
   <g>
    <path d="M 2.25 -0.15625 C 2.757812 -0.875 3.015625 -1.800781 3.015625 -2.9375 L 3.015625 -11.046875 C 3.015625 -11.703125 2.9375 -12.25 2.78125 -12.6875 C 2.625 -13.125 2.382812 -13.492188 2.0625 -13.796875 L 2.0625 -13.9375 L 5.53125 -15.296875 L 5.6875 -15.296875 L 5.6875 -11.8125 L 5.828125 -11.8125 C 6.191406 -12.957031 6.773438 -13.820312 7.578125 -14.40625 C 8.390625 -15 9.515625 -15.296875 10.953125 -15.296875 L 10.953125 -12.71875 L 9.484375 -12.71875 C 6.953125 -12.71875 5.6875 -11.585938 5.6875 -9.328125 L 5.6875 -2.9375 C 5.6875 -1.800781 5.945312 -0.875 6.46875 -0.15625 L 6.46875 0 L 2.25 0 Z M 2.25 -0.15625 "/>
   </g>
  </g>
 </g>
 <g fill="currentColor" fill-opacity="1">
  <g transform="translate(173.324578, 49.817417)">
   <g>
    <path d="M 8.53125 0.328125 C 7.113281 0.328125 5.859375 -0.015625 4.765625 -0.703125 C 3.679688 -1.390625 2.84375 -2.328125 2.25 -3.515625 C 1.664062 -4.703125 1.375 -6.023438 1.375 -7.484375 C 1.375 -8.941406 1.664062 -10.257812 2.25 -11.4375 C 2.84375 -12.625 3.679688 -13.5625 4.765625 -14.25 C 5.859375 -14.945312 7.113281 -15.296875 8.53125 -15.296875 C 9.945312 -15.296875 11.195312 -14.945312 12.28125 -14.25 C 13.363281 -13.5625 14.195312 -12.625 14.78125 -11.4375 C 15.375 -10.257812 15.671875 -8.941406 15.671875 -7.484375 C 15.671875 -6.023438 15.375 -4.703125 14.78125 -3.515625 C 14.195312 -2.328125 13.363281 -1.390625 12.28125 -0.703125 C 11.195312 -0.015625 9.945312 0.328125 8.53125 0.328125 Z M 8.53125 -0.296875 C 9.882812 -0.296875 10.921875 -0.96875 11.640625 -2.3125 C 12.359375 -3.664062 12.71875 -5.390625 12.71875 -7.484375 C 12.71875 -9.578125 12.359375 -11.296875 11.640625 -12.640625 C 10.921875 -13.984375 9.882812 -14.65625 8.53125 -14.65625 C 7.175781 -14.65625 6.140625 -13.984375 5.421875 -12.640625 C 4.703125 -11.296875 4.34375 -9.578125 4.34375 -7.484375 C 4.34375 -5.390625 4.703125 -3.664062 5.421875 -2.3125 C 6.140625 -0.96875 7.175781 -0.296875 8.53125 -0.296875 Z M 8.53125 -0.296875 "/>
   </g>
  </g>
 </g>
 <g fill="currentColor" fill-opacity="1">
  <g transform="translate(189.789254, 49.817417)">
   <g>
    <path d="M 2.09375 -0.15625 C 2.789062 -1.09375 3.140625 -2.347656 3.140625 -3.921875 L 3.140625 -17.03125 C 3.140625 -18.601562 2.789062 -19.859375 2.09375 -20.796875 L 2.09375 -20.9375 L 16.78125 -20.9375 L 17.53125 -15.234375 L 17.234375 -15.234375 C 16.515625 -16.890625 15.628906 -18.128906 14.578125 -18.953125 C 13.535156 -19.785156 12.046875 -20.203125 10.109375 -20.203125 L 7.484375 -20.203125 L 7.484375 -10.921875 L 10.140625 -10.921875 C 11.273438 -10.921875 12.164062 -11.1875 12.8125 -11.71875 C 13.46875 -12.257812 13.9375 -13.039062 14.21875 -14.0625 L 14.515625 -14.0625 L 14.515625 -7.03125 L 14.21875 -7.03125 C 13.9375 -8.050781 13.46875 -8.828125 12.8125 -9.359375 C 12.164062 -9.898438 11.273438 -10.171875 10.140625 -10.171875 L 7.484375 -10.171875 L 7.484375 -0.75 L 10.765625 -0.75 C 12.703125 -0.75 14.191406 -1.160156 15.234375 -1.984375 C 16.285156 -2.816406 17.171875 -4.0625 17.890625 -5.71875 L 18.1875 -5.71875 L 17.4375 0 L 2.09375 0 Z M 2.09375 -0.15625 "/>
   </g>
  </g>
 </g>
 <g fill="currentColor" fill-opacity="1">
  <g transform="translate(208.314177, 49.817417)">
   <g>
    <path d="M 0.265625 -0.15625 C 1.523438 -0.945312 2.613281 -1.992188 3.53125 -3.296875 L 6.015625 -6.765625 L 3.015625 -11.453125 C 2.054688 -12.953125 1.128906 -14.070312 0.234375 -14.8125 L 0.234375 -14.953125 L 7.125 -14.953125 L 7.125 -14.8125 C 6.945312 -14.550781 6.859375 -14.222656 6.859375 -13.828125 C 6.859375 -13.148438 7.144531 -12.351562 7.71875 -11.4375 L 9.15625 -9.09375 L 10.796875 -11.4375 C 11.460938 -12.375 11.796875 -13.179688 11.796875 -13.859375 C 11.796875 -14.171875 11.703125 -14.488281 11.515625 -14.8125 L 11.515625 -14.953125 L 15.140625 -14.953125 L 15.140625 -14.8125 C 13.984375 -14.070312 12.894531 -13.023438 11.875 -11.671875 L 9.578125 -8.53125 L 12.75 -3.5 C 13.1875 -2.820312 13.660156 -2.171875 14.171875 -1.546875 C 14.679688 -0.929688 15.132812 -0.46875 15.53125 -0.15625 L 15.53125 0 L 8.640625 0 L 8.640625 -0.15625 C 8.804688 -0.425781 8.890625 -0.742188 8.890625 -1.109375 C 8.890625 -1.828125 8.609375 -2.632812 8.046875 -3.53125 L 6.40625 -6.1875 L 4.578125 -3.53125 C 3.941406 -2.613281 3.625 -1.816406 3.625 -1.140625 C 3.625 -0.773438 3.710938 -0.445312 3.890625 -0.15625 L 3.890625 0 L 0.265625 0 Z M 0.265625 -0.15625 "/>
   </g>
  </g>
 </g>
 <g fill="currentColor" fill-opacity="1">
  <g transform="translate(223.487258, 49.817417)">
   <g>
    <path d="M 15.34375 -1.046875 C 15.101562 -0.609375 14.71875 -0.257812 14.1875 0 C 13.664062 0.257812 13.078125 0.390625 12.421875 0.390625 C 11.578125 0.390625 10.898438 0.195312 10.390625 -0.1875 C 9.890625 -0.582031 9.585938 -1.117188 9.484375 -1.796875 L 9.453125 -1.921875 L 9.359375 -1.921875 C 8.960938 -1.222656 8.421875 -0.660156 7.734375 -0.234375 C 7.046875 0.179688 6.179688 0.390625 5.140625 0.390625 C 3.929688 0.390625 2.976562 0.101562 2.28125 -0.46875 C 1.59375 -1.050781 1.25 -1.84375 1.25 -2.84375 C 1.25 -3.9375 1.644531 -4.859375 2.4375 -5.609375 C 3.226562 -6.359375 4.25 -6.910156 5.5 -7.265625 C 6.757812 -7.628906 8.085938 -7.8125 9.484375 -7.8125 L 9.484375 -9.671875 C 9.484375 -10.785156 9.144531 -11.6875 8.46875 -12.375 C 7.789062 -13.0625 6.863281 -13.40625 5.6875 -13.40625 C 4.832031 -13.40625 4.066406 -13.203125 3.390625 -12.796875 C 2.722656 -12.398438 2.203125 -11.84375 1.828125 -11.125 L 1.53125 -11.125 C 1.863281 -12.425781 2.570312 -13.453125 3.65625 -14.203125 C 4.75 -14.960938 6.035156 -15.34375 7.515625 -15.34375 C 9.390625 -15.34375 10.859375 -14.816406 11.921875 -13.765625 C 12.992188 -12.722656 13.53125 -11.359375 13.53125 -9.671875 L 13.53125 -2.15625 C 13.53125 -1.738281 13.617188 -1.429688 13.796875 -1.234375 C 13.972656 -1.046875 14.191406 -0.953125 14.453125 -0.953125 C 14.828125 -0.953125 15.078125 -1.035156 15.203125 -1.203125 Z M 7.328125 -1.5625 C 7.953125 -1.5625 8.46875 -1.769531 8.875 -2.1875 C 9.28125 -2.601562 9.484375 -3.101562 9.484375 -3.6875 L 9.484375 -7.125 C 8.242188 -7.082031 7.257812 -6.769531 6.53125 -6.1875 C 5.8125 -5.613281 5.453125 -4.816406 5.453125 -3.796875 C 5.453125 -3.035156 5.628906 -2.472656 5.984375 -2.109375 C 6.335938 -1.742188 6.785156 -1.5625 7.328125 -1.5625 Z M 7.328125 -1.5625 "/>
   </g>
  </g>
 </g>
 <g fill="currentColor" fill-opacity="1">
  <g transform="translate(238.630405, 49.817417)">
   <g>
    <path d="M 1.890625 -0.15625 C 2.148438 -0.53125 2.351562 -1.007812 2.5 -1.59375 C 2.644531 -2.1875 2.71875 -2.832031 2.71875 -3.53125 L 2.71875 -10.234375 C 2.71875 -11.046875 2.628906 -11.707031 2.453125 -12.21875 C 2.273438 -12.726562 2.003906 -13.164062 1.640625 -13.53125 L 1.640625 -13.671875 L 6.609375 -15.34375 L 6.765625 -15.34375 L 6.765625 -12.421875 L 6.90625 -12.421875 C 7.3125 -13.335938 7.890625 -14.050781 8.640625 -14.5625 C 9.398438 -15.082031 10.300781 -15.34375 11.34375 -15.34375 C 12.375 -15.34375 13.273438 -15.0625 14.046875 -14.5 C 14.816406 -13.945312 15.34375 -13.191406 15.625 -12.234375 L 15.765625 -12.234375 C 16.148438 -13.148438 16.71875 -13.894531 17.46875 -14.46875 C 18.226562 -15.050781 19.148438 -15.34375 20.234375 -15.34375 C 21.585938 -15.34375 22.679688 -14.894531 23.515625 -14 C 24.359375 -13.101562 24.78125 -11.9375 24.78125 -10.5 L 24.78125 -3.53125 C 24.78125 -2.832031 24.851562 -2.1875 25 -1.59375 C 25.144531 -1.007812 25.347656 -0.53125 25.609375 -0.15625 L 25.609375 0 L 19.890625 0 L 19.890625 -0.15625 C 20.148438 -0.53125 20.351562 -1.007812 20.5 -1.59375 C 20.65625 -2.1875 20.734375 -2.832031 20.734375 -3.53125 L 20.734375 -10.328125 C 20.734375 -11.097656 20.519531 -11.722656 20.09375 -12.203125 C 19.664062 -12.679688 19.101562 -12.921875 18.40625 -12.921875 C 17.664062 -12.921875 17.039062 -12.660156 16.53125 -12.140625 C 16.019531 -11.628906 15.765625 -10.941406 15.765625 -10.078125 L 15.765625 -3.53125 C 15.765625 -2.832031 15.835938 -2.1875 15.984375 -1.59375 C 16.140625 -1.007812 16.347656 -0.53125 16.609375 -0.15625 L 16.609375 0 L 10.890625 0 L 10.890625 -0.15625 C 11.148438 -0.53125 11.351562 -1.007812 11.5 -1.59375 C 11.65625 -2.1875 11.734375 -2.832031 11.734375 -3.53125 L 11.734375 -10.328125 C 11.734375 -11.097656 11.515625 -11.722656 11.078125 -12.203125 C 10.648438 -12.679688 10.085938 -12.921875 9.390625 -12.921875 C 8.648438 -12.921875 8.023438 -12.660156 7.515625 -12.140625 C 7.015625 -11.628906 6.765625 -10.941406 6.765625 -10.078125 L 6.765625 -3.53125 C 6.765625 -2.832031 6.835938 -2.1875 6.984375 -1.59375 C 7.140625 -1.007812 7.34375 -0.53125 7.59375 -0.15625 L 7.59375 0 L 1.890625 0 Z M 1.890625 -0.15625 "/>
   </g>
  </g>
 </g>
 <g fill="currentColor" fill-opacity="1">
  <g transform="translate(265.175802, 49.817417)">
   <g>
    <path d="M 14.875 -5.0625 C 14.53125 -3.40625 13.769531 -2.082031 12.59375 -1.09375 C 11.414062 -0.101562 9.976562 0.390625 8.28125 0.390625 C 6.945312 0.390625 5.738281 0.0976562 4.65625 -0.484375 C 3.582031 -1.078125 2.734375 -1.941406 2.109375 -3.078125 C 1.484375 -4.210938 1.171875 -5.5625 1.171875 -7.125 C 1.171875 -8.738281 1.507812 -10.164062 2.1875 -11.40625 C 2.863281 -12.65625 3.769531 -13.625 4.90625 -14.3125 C 6.039062 -15 7.28125 -15.34375 8.625 -15.34375 C 9.851562 -15.34375 10.925781 -15.082031 11.84375 -14.5625 C 12.757812 -14.050781 13.457031 -13.351562 13.9375 -12.46875 C 14.414062 -11.59375 14.65625 -10.648438 14.65625 -9.640625 L 4.421875 -9.640625 C 4.484375 -8.140625 4.785156 -6.851562 5.328125 -5.78125 C 5.867188 -4.71875 6.570312 -3.914062 7.4375 -3.375 C 8.300781 -2.84375 9.253906 -2.578125 10.296875 -2.578125 C 11.273438 -2.578125 12.132812 -2.796875 12.875 -3.234375 C 13.625 -3.671875 14.191406 -4.28125 14.578125 -5.0625 Z M 7.484375 -14.484375 C 6.585938 -14.484375 5.859375 -14.128906 5.296875 -13.421875 C 4.734375 -12.710938 4.441406 -11.679688 4.421875 -10.328125 L 10.6875 -10.328125 C 10.5625 -11.597656 10.222656 -12.609375 9.671875 -13.359375 C 9.128906 -14.109375 8.398438 -14.484375 7.484375 -14.484375 Z M 7.484375 -14.484375 "/>
   </g>
  </g>
 </g>
</svg>
